<svg xmlns="http://www.w3.org/2000/svg" width="17.451" height="19.376" viewBox="0 0 17.451 19.376"><g transform="translate(-6.75 -2.25)"><path d="M8.764,3.592a.671.671,0,0,0-.671.671V19.119l5.37-3.58,5.37,3.58v-6.8a.671.671,0,1,1,1.342,0v9.308l-6.712-4.474L6.75,21.626V4.264A2.014,2.014,0,0,1,8.764,2.25h5.37a.671.671,0,0,1,0,1.342ZM20.845,2.25a.671.671,0,0,1,.671.671V5.606a.671.671,0,0,1-.671.671H18.16a.671.671,0,0,1,0-1.342h2.014V2.921A.671.671,0,0,1,20.845,2.25Z" fill="#fff" fill-rule="evenodd"/><path d="M29.25,7.421a.671.671,0,0,1,.671-.671h2.685a.671.671,0,1,1,0,1.342H30.592v2.014a.671.671,0,0,1-1.342,0Z" transform="translate(-9.076 -1.815)" fill="#fff" fill-rule="evenodd"/></g></svg>