<svg xmlns="http://www.w3.org/2000/svg" width="13.836" height="15" viewBox="0 0 13.836 15"><path d="M17.748,15.664a1.463,1.463,0,0,0,.6-1.132,1.583,1.583,0,0,0-.393-1.049c-.022-.043-.04-.083-.058-.123l-.007-.04a.471.471,0,0,1,.072-.36,1.58,1.58,0,0,0,.209-.926,1.1,1.1,0,0,0-.35-.836.687.687,0,0,1-.148-.66,1.39,1.39,0,0,0-.3-1.363C17,8.75,16.648,8.7,15.707,8.753c-.649.04-2,.249-2.891.389-.364.058-.681.108-.779.115-.458.047-.548,0-.591-.177a1.169,1.169,0,0,1,.177-.469,7.731,7.731,0,0,0,.523-1.291,4.528,4.528,0,0,0-.1-3.252,1.178,1.178,0,0,0-.948-.689,1.434,1.434,0,0,0-1.006.285c-.123.144-.083.418-.224.966a10.511,10.511,0,0,1-.433,1.514A10.361,10.361,0,0,1,7.384,8.324c-.148.13-.274.242-.364.328A7.43,7.43,0,0,0,6.1,9.831a6.275,6.275,0,0,1-.494.667,1.3,1.3,0,0,1-.8.393.289.289,0,0,0-.288.288v5.75a.3.3,0,0,0,.3.3,5.681,5.681,0,0,1,2.394.425,6.23,6.23,0,0,0,1.673.436,34.626,34.626,0,0,0,4.059.292,17.965,17.965,0,0,0,2.04-.141c1.118-.13,2.314-.389,2.711-1.334a1.018,1.018,0,0,0-.018-.854.283.283,0,0,1-.029-.094A.305.305,0,0,1,17.748,15.664Z" transform="translate(-4.514 -3.382)" opacity="0.4"/></svg>