<svg xmlns="http://www.w3.org/2000/svg" width="180.082" height="57.759" viewBox="0 0 180.082 57.759"><g transform="translate(0.004 0)"><path d="M42.674,3.258a16.1,16.1,0,0,0,8.32-.248C47.54,2.616,47.924-.454,37.555.057a15.56,15.56,0,0,0-13.714,9.11c1.506-3.013,7.1-4.475,7.1-4.475C24.7,6.964,21.3,13.074,20.945,13.7c-1.214-.015-2.418-.074-3.578-.178h-.129l-.421-.042a12.883,12.883,0,0,1-4.735-1.571c-2.369-1.273,8.379-2.956,8.379-2.956a24.242,24.242,0,0,0-11.707,2.3s-.768.344-.768.768v6.526a.768.768,0,0,0,.768.768c3.63,1.142,2.7,3.9,1.226,4.923-2.3,1.157-8.035,5.24-7.47,17.009A13.558,13.558,0,0,1,1.484,47.2c-.228.538-.5.991-.662,1.323C-.464,51.083-1.323,57.3,6.838,57.738c9.353.5,5.887-8.191,4.1-10.75s-1.858-6.828-1.61-9.08.971-8.582,5.2-8.454,3.013,3.07,2.815,4.985a19.337,19.337,0,0,1-1.791,5.248c-1.073,2.4-.389,5.52,3.583,5.76,4.841.29,6.781-2.649,4.373-8.971-3.186-8.362,4.707-9.479,8.424-5.238,3.575,4.076.089,5.624-1.07,7.3-1.217,1.759-2.495,6.97,4.655,7.034,6.016.055,4.113-5.223,3.2-8.449-1.4-4.955,1.35-7.879-3.731-12.363a10.381,10.381,0,0,0-.941-.773,3.82,3.82,0,0,1-1.063-1.07c-1.6-2.5,1.571-3.593,1.571-3.593a.768.768,0,0,0,.768-.768V12.024c0-.424-.768-.768-.768-.768C32.2,12.712,28,13.485,23.614,13.664v.02h-.847c4.115-9.167,16.2-9.839,16.2-9.839C32.206,5.2,28.368,7.628,26.223,9.739c6.442,1.036,8.82-1.982,12.009-2.75A8.579,8.579,0,0,0,33.993,6.1c1.387-.617,3.615-.268,5.186.111a8.525,8.525,0,0,0,4.757-.193,18.8,18.8,0,0,0,3.09-1.358C45.491,5.049,42.674,3.258,42.674,3.258Z" transform="translate(0 0)" fill="#00b9ff"/><path d="M243.573,183.953a2.924,2.924,0,0,1-3.35,2.926h-3V176.81h2.611a2.807,2.807,0,0,1,2.938,1.687,3.042,3.042,0,0,1,.2,1.1,2.421,2.421,0,0,1-.9,1.905A2.683,2.683,0,0,1,243.573,183.953Zm-2.069-4.371q0-1.43-1.7-1.43h-1.115V181h1.2Q241.5,181,241.5,179.582Zm.6,4.368a1.534,1.534,0,0,0-.354-.991,1.313,1.313,0,0,0-.674-.5,3.47,3.47,0,0,0-.971-.116h-1.415v3.181h1.591a2.014,2.014,0,0,0,1.293-.421,1.4,1.4,0,0,0,.53-1.155Z" transform="translate(-178.449 -133.003)" fill="#00b9ff"/><path d="M274.285,186.877H269.33V176.81H270.8v8.719h3.5Z" transform="translate(-202.603 -133.003)" fill="#00b9ff"/><path d="M301.824,181.188a4.985,4.985,0,0,1-1.536,3.674,5.248,5.248,0,1,1,1.536-3.674Zm-1.469.015a3.9,3.9,0,0,0-1.075-2.775,3.543,3.543,0,0,0-2.693-1.142,3.607,3.607,0,0,0-2.061.6,3.736,3.736,0,0,0-1.353,1.672,4.014,4.014,0,0,0-.354,1.605,4.212,4.212,0,0,0,.354,1.633,3.8,3.8,0,0,0,1.368,1.653,3.7,3.7,0,0,0,5.565-1.9A3.7,3.7,0,0,0,300.355,181.2Z" transform="translate(-219.151 -132.322)" fill="#00b9ff"/><path d="M348.241,181.3a5.354,5.354,0,0,1-.81,2.81,5,5,0,0,1-2.2,1.9,5.168,5.168,0,0,1-2.19.5,4.955,4.955,0,0,1-3.659-1.516,5.044,5.044,0,0,1-1.487-3.679,5.144,5.144,0,0,1,1.487-3.716,4.888,4.888,0,0,1,3.652-1.536,4.973,4.973,0,0,1,2.626.743,5.179,5.179,0,0,1,1.89,1.982h-1.715a3.622,3.622,0,0,0-2.748-1.375,3.469,3.469,0,0,0-2.646,1.164,3.892,3.892,0,0,0-1.083,2.74,3.788,3.788,0,0,0,1.1,2.7,3.521,3.521,0,0,0,2.646,1.15,3.444,3.444,0,0,0,2.108-.686,4,4,0,0,0,1.36-1.816h-4.685v-1.348Z" transform="translate(-254.181 -132.437)" fill="#00b9ff"/><path d="M388.569,183.442a2.936,2.936,0,0,1-.87,2.2,3.043,3.043,0,0,1-2.23.85,2.973,2.973,0,0,1-2.23-.9,3.144,3.144,0,0,1-.865-2.272h1.469a1.962,1.962,0,0,0,.436,1.3,1.472,1.472,0,0,0,1.2.523,1.524,1.524,0,0,0,1.184-.476,1.734,1.734,0,0,0,.436-1.224,1.578,1.578,0,0,0-.116-.632,1.078,1.078,0,0,0-.339-.436,2.841,2.841,0,0,0-.476-.292q-.248-.121-.565-.248l-.121-.04q-.53-.2-.768-.3t-.647-.3a2.351,2.351,0,0,1-.6-.394,4.363,4.363,0,0,1-.409-.483,1.789,1.789,0,0,1-.307-.674,3.792,3.792,0,0,1-.089-.857,2.589,2.589,0,0,1,.823-1.945,2.773,2.773,0,0,1,1.982-.788,2.892,2.892,0,0,1,2.074.768,2.673,2.673,0,0,1,.81,2.034h-1.469a1.469,1.469,0,0,0-.382-1.055,1.358,1.358,0,0,0-1.033-.4,1.283,1.283,0,0,0-.946.409,1.33,1.33,0,0,0-.4.966,1.1,1.1,0,0,0,.248.728,1.759,1.759,0,0,0,.632.468,8.173,8.173,0,0,0,.865.334,8.323,8.323,0,0,1,.951.382,4.27,4.27,0,0,1,.865.538,2.248,2.248,0,0,1,.632.885A3.4,3.4,0,0,1,388.569,183.442Z" transform="translate(-287.638 -132.426)" fill="#00b9ff"/><path d="M243.662,56.879h-4.935V76.423h-6.442V56.879H227.32V51.24h16.352Z" transform="translate(-171.002 -38.545)" fill="#00b9ff"/><path d="M445.2,76.432h-5.929l.2-18.862L439.4,57.5,434.026,76.43h-4.249L424.405,57.5l-.069.069.206,18.862H418.61V51.24h8.273l5,16.58h.067l4.938-16.58H445.2Z" transform="translate(-314.897 -38.545)" fill="#00b9ff"/><path d="M561.565,76.432h-6.979l-1.226-3.642h-8.749l-1.328,3.642H536.37L546.481,51.24h5.074Zm-9.911-8.751-2.584-8.612h-.1l-2.587,8.615Z" transform="translate(-403.481 -38.545)" fill="#00b9ff"/><path d="M667.907,76.432h-7.354L654.731,68.3h-.067v8.137H648.5V51.24h7.968q1.7,0,2.775.069a11.775,11.775,0,0,1,2.52.5,7.116,7.116,0,0,1,2.478,1.239,8.324,8.324,0,0,1,3.1,6.878,8.424,8.424,0,0,1-1.685,5.225,6.937,6.937,0,0,1-4.579,2.706ZM661.166,60.3a2.946,2.946,0,0,0-1.174-2.572,4.984,4.984,0,0,0-2.973-.835h-2.349V63.9h2.282a4.907,4.907,0,0,0,3.082-.885A3.2,3.2,0,0,0,661.166,60.3Z" transform="translate(-487.829 -38.545)" fill="#00b9ff"/><path d="M347.862,102.161a1.026,1.026,0,0,1-.443-.151.711.711,0,0,0-.57-.084.191.191,0,0,1-.193-.032.27.27,0,0,0-.178-.047,1.507,1.507,0,0,0-.5.092.174.174,0,0,0-.094.087.684.684,0,0,0-.047.248,1.818,1.818,0,0,0,.082.372.275.275,0,0,0,.1.136,1.055,1.055,0,0,0,.426.109.074.074,0,0,0,.054-.015,1.794,1.794,0,0,0,.248-.233,1.5,1.5,0,0,0,.121-.263.364.364,0,0,1-.126-.3.3.3,0,0,1,.069.055.344.344,0,0,0,.335.149.453.453,0,0,1,.2.032,1.467,1.467,0,0,0,.607.05C348,102.2,347.991,102.171,347.862,102.161Z" transform="translate(-260.157 -76.612)" fill="#00b9ff"/><path d="M369.411,75.29a2.955,2.955,0,0,1-.03-.545.743.743,0,0,0-.265-.565,1.085,1.085,0,0,0-.166.1.892.892,0,0,1-.652.248,1.187,1.187,0,0,0-.669.149c-.131.077-.248.161-.384.248a1.984,1.984,0,0,0-.169.149.349.349,0,0,0,.116.285c.181.161.362.322.548.476a2.58,2.58,0,0,0,.441.32,3.8,3.8,0,0,0,1.194.352c.052-.121.109-.248.149-.357a.689.689,0,0,0-.022-.6A.653.653,0,0,1,369.411,75.29Z" transform="translate(-276.132 -55.801)" fill="#00b9ff"/><path d="M342.955,92.7l.176.027h.045c.151,0,.178-.042.151-.193a.322.322,0,0,1,0-.146,1,1,0,0,0-.144-.694,4.963,4.963,0,0,0-.248-.441c-.077-.149-.144-.3-.218-.453-.035-.067-.082-.134-.171-.114a.275.275,0,0,0-.206.126,4.619,4.619,0,0,1-.27.443.773.773,0,0,0-.139.4,2.752,2.752,0,0,0-.03.545.613.613,0,0,1,0,.072.773.773,0,0,0,0,.131.743.743,0,0,0,.421.572.186.186,0,0,0,.3-.1A.27.27,0,0,1,342.955,92.7Z" transform="translate(-257.192 -68.218)" fill="#00b9ff"/><path d="M344.341,105.959a.248.248,0,0,1-.149-.2.852.852,0,0,1,0-.188c0-.084,0-.107-.087-.121s-.126-.022-.188-.03a.168.168,0,0,0-.193.1,1.244,1.244,0,0,1-.114.164l.206.181a.52.52,0,0,0,.116.089.164.164,0,0,1,.1.166c0,.082.017.164.027.26a1.187,1.187,0,0,0-.094.107c-.032.045-.037.1.017.129.116.052.248.092.359.134a.1.1,0,0,0,.057-.012v-.1a.379.379,0,0,0,.163-.349A.374.374,0,0,0,344.341,105.959Zm-.23.567c.022-.069.042-.119.114-.1a.064.064,0,0,1,.027.057C344.229,106.549,344.18,106.549,344.111,106.527Z" transform="translate(-258.479 -79.296)" fill="#00b9ff"/><path d="M320.089,53.091a12.97,12.97,0,0,0-9.415-3.781,12.7,12.7,0,0,0-10.654,5.176,11.151,11.151,0,0,0-1.635,2.827,14.618,14.618,0,0,0-.991,5.379,11.987,11.987,0,0,0,3.915,9.073A13.707,13.707,0,0,0,320.1,71.7a13.079,13.079,0,0,0-.012-18.607Zm-6.67,1.036a.352.352,0,0,1,.349.171.141.141,0,0,1,.03.064.444.444,0,0,1-.087.322.265.265,0,0,1-.248.082c-.216,0-.3-.082-.3-.285v-.089a.248.248,0,0,1,.268-.265Zm-1.239-2.146a.1.1,0,0,1,.1.02.148.148,0,0,1,.03.116c-.022.074-.089.059-.159.047-.015-.077-.035-.144.032-.186ZM310.8,55.757c.069,0,.126.069.111.111a.084.084,0,0,1-.064.042c-.057,0-.119-.062-.1-.1s.045-.045.059-.057Zm-2.331-1.338c.069-.04.116,0,.156.069-.079.062-.134.067-.161.017a.066.066,0,0,1,.007-.089Zm-.956-1.623c.052-.067.134-.072.268-.012.062.151.06.206,0,.248a.2.2,0,0,1-.248-.035.183.183,0,0,1-.017-.2Zm-5.144,3.072a.062.062,0,0,1-.017.059c-.064.03-.092-.015-.126-.074C302.3,55.8,302.34,55.806,302.372,55.868Zm.069,10.057a.223.223,0,0,1,.248-.151c-.022.116-.1.168-.25.149Zm.1-5.869a.248.248,0,0,1-.228,0,1.549,1.549,0,0,0-.481-.183.639.639,0,0,1-.29-.166c-.072-.074-.156-.134-.233-.206a.66.66,0,0,1-.1-.124c-.067-.1-.124-.213-.193-.315s-.077-.131-.032-.2a.6.6,0,0,0,.037-.456.379.379,0,0,1,.084-.359,1.11,1.11,0,0,0,.144-.206.638.638,0,0,0,.082-.218.248.248,0,0,1,.193-.23.419.419,0,0,1,.1-.027.409.409,0,0,0,.27-.109.2.2,0,0,1,.206-.037.374.374,0,0,0,.173.015,1.16,1.16,0,0,1,.934.282,1.45,1.45,0,0,0,.2.146.377.377,0,0,1,.188.2,3.059,3.059,0,0,1,.228.575l.027.131a1.748,1.748,0,0,1-.144.582.206.206,0,0,0-.017.114.228.228,0,0,1-.1.2,1.759,1.759,0,0,0-.146.159.268.268,0,0,1-.089.067,3.989,3.989,0,0,0-.582.285.9.9,0,0,1-.233.084Zm4.413,7.264a.458.458,0,0,0-.23.154,1.292,1.292,0,0,1-.322.233,3.057,3.057,0,0,1-.575.23,2.287,2.287,0,0,1-.364.057c-.193.037-.384.089-.58.119a1.288,1.288,0,0,1-.892-.1c-.084-.05-.178-.082-.265-.129a.845.845,0,0,1-.327-.429,2.306,2.306,0,0,1-.164-.429,4.079,4.079,0,0,1-.064-.476c-.037-.047-.136,0-.129-.1,0,0,.015-.017.022-.017.062,0,.146.02.178,0a.58.58,0,0,0,.225-.354,1.407,1.407,0,0,0-.017-.295c-.017-.126-.045-.248-.059-.379a.21.21,0,0,1,.025-.141,1.02,1.02,0,0,1,.339-.337.473.473,0,0,1,.339-.059.312.312,0,0,0,.131,0,.515.515,0,0,1,.29,0c.062.022.129-.03.176-.087s.114-.131.193-.223l.022.166a.439.439,0,0,0,.359-.129.905.905,0,0,0,.1-.144c.057-.089.072-.094.164-.072l.473.114a.282.282,0,0,1,.109.04c.1.084.2.178.3.248s.233.164.349.248a.439.439,0,0,1,.23.364c0,.216.012.429,0,.644,0,.1-.047.208-.037.307.02.225.062.448.094.674v.146A.151.151,0,0,1,306.958,67.32Zm-.555-3.9a.176.176,0,0,1,.181-.139.111.111,0,0,1,.111.126c0,.134-.047.181-.146.178a.149.149,0,0,1-.149-.178Zm.991,9.37c-.025-.144,0-.168.181-.159l.037.126c-.087.052-.087.052-.213.015Zm.924-3.325c-.084.074-.178.139-.265.213a.434.434,0,0,1-.5.072c-.1-.047-.116-.074-.092-.181a1.793,1.793,0,0,1,.04-.2.667.667,0,0,1,.443-.476c.144-.042.173-.025.225.114a.52.52,0,0,0,.265.322,1.02,1.02,0,0,1-.116.124Zm.51.59a.094.094,0,0,1-.144,0,.342.342,0,0,1-.032-.055.273.273,0,0,1,.052-.052c.052-.03.109-.037.144.017a.092.092,0,0,1-.015.082Zm-.173-.877a.208.208,0,0,1-.164-.166.2.2,0,1,1,.164.166Zm.914,2.091a2.723,2.723,0,0,1-.367.322.5.5,0,0,1-.161.074c-.079.025-.126,0-.121-.092a.454.454,0,0,1,.032-.114c.037-.107.082-.213.109-.322a.931.931,0,0,1,.377-.562.262.262,0,0,0,.072-.119c.015-.035,0-.082.089-.087.015.072.027.144.042.216s.02.1.032.144a.582.582,0,0,1-.1.528Zm2.079.344a1.053,1.053,0,0,1-.164.263c-.087.111-.164.1-.248,0a.523.523,0,0,1-.124-.31.431.431,0,0,1,.129-.32l.02-.02c.112-.111.248-.2.248-.387h.042v.129a.389.389,0,0,0,.074.265.377.377,0,0,1,.04.367Zm1.593.161a.332.332,0,0,1-.248-.377v-.1c.31-.02.434.168.431.339,0,.114-.059.156-.178.121Zm1.239.991c-.022,0-.05-.03-.074-.045.025-.02.045-.05.074-.059s.047.02.089.04c-.04.027-.062.059-.087.072Zm-.077-1.145a.141.141,0,0,1-.2.055.83.83,0,0,1-.364-.292.394.394,0,0,1-.062-.176.671.671,0,0,1,.022-.4c.057-.116.1-.144.216-.094a.139.139,0,0,1,.04.02c.131.116.263.233.389.354a.159.159,0,0,1,.052.1.208.208,0,0,0,.109.2,2.06,2.06,0,0,0-.2.23Zm-.5-2.138c0-.017.04-.045.067-.055s.045,0,.1,0c-.042.042-.057.069-.079.079s-.087.027-.1-.027Zm.894-1.088a.153.153,0,0,1-.107.084,1.041,1.041,0,0,1-.221-.017l-.03-.2a.216.216,0,0,1,.186-.082.161.161,0,0,1,.169.216Zm1.734,2.037a.107.107,0,0,1-.156.02c-.064-.047-.121-.107-.186-.161a.248.248,0,0,1,.3-.025.131.131,0,0,1,.037.164Zm-.047-.577a.171.171,0,0,1-.176-.159.134.134,0,0,1,.146-.146c.124,0,.186.045.188.151s-.062.146-.166.149Zm1.779.852a.233.233,0,0,1-.072.035,1.274,1.274,0,0,1-.565-.067c-.059-.02-.1-.089-.149-.141a1.21,1.21,0,0,1-.248-.409.681.681,0,0,1,.728-.1.649.649,0,0,1,.3.676Zm.037-10.171a1.264,1.264,0,0,1-.446.325.593.593,0,0,0-.248.233.743.743,0,0,0-.136.4c0,.074-.062.146-.079.221s-.084.121-.069.221-.069.159-.109.248l-.114.225a1.989,1.989,0,0,1-.116.221.621.621,0,0,1-.144.144c-.159.116-.317.23-.483.337a1.634,1.634,0,0,1-.248.121c-.082.035-.166.062-.248.094a.961.961,0,0,1-.669,0,.3.3,0,0,0-.042-.017c-.223-.037-.446-.077-.669-.1-.176-.022-.347,0-.377.248.037.1.087.211.124.33a.374.374,0,0,0,.161.206c.094.062.186.131.28.2a.394.394,0,0,0,.431.05.181.181,0,0,1,.248.124,3.057,3.057,0,0,1,.032.4.089.089,0,0,1-.027.067c-.121.094-.116.248-.166.374a.208.208,0,0,0,.069.213c.082.092.149.193.223.292.04.055.017.092-.035.119a.248.248,0,0,1,.2.1,1.58,1.58,0,0,0,.354.287,1.055,1.055,0,0,1,.287.287c.067.084.126.178.191.265a.649.649,0,0,1,.126.461.322.322,0,0,1-.2.287.842.842,0,0,1-.287.052.265.265,0,0,1-.248-.121c-.062-.089-.139-.168-.2-.248a1.186,1.186,0,0,1-.176-.557c-.025-.181-.022-.364-.035-.548a1.112,1.112,0,0,0-.03-.114,1.055,1.055,0,0,1,0-.129c-.037-.05-.074-.1-.114-.151a1.067,1.067,0,0,0-.206-.211.22.22,0,0,0-.193,0,.654.654,0,0,0-.3.533.315.315,0,0,0,.059.129c.025.042.077.1.109.156a.151.151,0,0,1,0,.193.216.216,0,0,1-.223.084.249.249,0,0,1-.069-.027.4.4,0,0,0-.481.062.356.356,0,0,0-.077.072c-.121.161-.248.317-.359.5a.843.843,0,0,0-.087.248c-.045.166-.087.206-.248.206a.718.718,0,0,1-.161-.015.5.5,0,0,0-.347.042c-.221.112-.441.221-.657.339a.2.2,0,0,1-.211,0l-.51-.3a.287.287,0,0,0-.248-.04c-.069.025-.146.03-.216.052a.26.26,0,0,1-.27-.074c-.072-.069-.134-.146-.2-.221l-.017-.022c-.186-.161-.275-.176-.431-.015a.359.359,0,0,1-.389.126.3.3,0,0,1,.1-.379,1.045,1.045,0,0,0,.112-.119.248.248,0,0,0-.02-.364c-.089-.072-.178-.141-.268-.211a.347.347,0,0,0-.339-.037,1.329,1.329,0,0,0-.466.248.325.325,0,0,0-.035.047c.035.131.069.248.1.389a.283.283,0,0,1-.114.312,1.152,1.152,0,0,1-.543.285.887.887,0,0,0-.216.1.178.178,0,0,1-.228-.035.2.2,0,0,1,0-.27.514.514,0,0,0,.089-.154.946.946,0,0,1,.327-.434.3.3,0,0,1,.154-.084c.092,0,.146-.079.218-.121a.109.109,0,0,0,.042-.154.544.544,0,0,1-.049-.183.379.379,0,0,1,.045-.166,1.68,1.68,0,0,1,.107-.161.7.7,0,0,0,.06-.609,2.114,2.114,0,0,0-.169-.426.282.282,0,0,0-.3-.151,1.852,1.852,0,0,1-.206,0,.369.369,0,0,1-.04-.248.622.622,0,0,0-.027-.379c-.04-.074-.094-.139-.136-.211a.218.218,0,0,1,.2-.357h.372a.58.58,0,0,0,.478-.275.265.265,0,0,1,.064-.079.761.761,0,0,0,.191-.248,1.022,1.022,0,0,1,.141-.171c.037-.04.079-.077.112-.119a.186.186,0,0,0-.055-.29c-.191-.094-.377-.2-.565-.295a.946.946,0,0,0-.327-.134.109.109,0,0,0-.136.079,1.375,1.375,0,0,1-.671.721l-.092.05a.2.2,0,0,0-.027.025c.012.059.03.119.037.183.015.139-.074.228-.2.206a.113.113,0,0,1-.116-.1c-.015-.114-.1-.126-.183-.136a2.067,2.067,0,0,0-.248,0,1.413,1.413,0,0,1-.56-.111,2.913,2.913,0,0,1-.441-.248,2.487,2.487,0,0,0-.384-.168l-.022-.072a.285.285,0,0,0-.282-.216,3.718,3.718,0,0,1-.545-.037,1.391,1.391,0,0,1-.991-.57,3.055,3.055,0,0,1-.2-.414v-.1a1.238,1.238,0,0,0,.025-.277,2.049,2.049,0,0,1,.077-.582.146.146,0,0,1,.126-.114.226.226,0,0,0,.139-.116,1.067,1.067,0,0,1,.441-.372.578.578,0,0,0,.1-.035.3.3,0,0,1,.268-.027c.089.025.188.02.278.045a1.311,1.311,0,0,1,.632.265.411.411,0,0,0,.156.084.228.228,0,0,0,.263-.04.369.369,0,0,1,.228-.092.468.468,0,0,0,.193-.059.711.711,0,0,1,.458-.084,3.163,3.163,0,0,1,.354.027.565.565,0,0,1,.183.045c.248.124.5.248.743.379a.107.107,0,0,0,.164-.045.342.342,0,0,0,.059-.268.4.4,0,0,1,.216-.446c.1-.05.2-.082.3-.124a.119.119,0,0,0,.069-.183h-.121c-.221.017-.443.05-.664.052a1.6,1.6,0,0,1-.694-.131,1.335,1.335,0,0,1-.6-.409.39.39,0,0,0-.114-.092.671.671,0,0,1-.228-.265,8.118,8.118,0,0,1-.317-.793.744.744,0,0,1-.072-.285,2.148,2.148,0,0,1,.077-.391c.017-.077.05-.151.064-.228a.793.793,0,0,1,.225-.471,2.7,2.7,0,0,0,.287-.332,1.1,1.1,0,0,1,.186-.168.742.742,0,0,1,.171-.114c.121-.05.248-.089.374-.131a.17.17,0,0,0,.1-.022,1.427,1.427,0,0,1,.944.015,3.185,3.185,0,0,1,.679.327.8.8,0,0,1,.1.082,1.657,1.657,0,0,1,.5.614,1.186,1.186,0,0,1,.191.567c0,.1.05.144.151.136a.693.693,0,0,0,.159-.037.384.384,0,0,1,.362.072.778.778,0,0,0,.5.178c.191,0,.384.022.577.022a1.665,1.665,0,0,0,.337-.045.2.2,0,0,0,.139-.144.481.481,0,0,1,.349-.312.805.805,0,0,0,.248-.116,2.087,2.087,0,0,1,.572-.275,2.293,2.293,0,0,0,.248-.116l.7-.32a1.285,1.285,0,0,0,.164-.072,2.135,2.135,0,0,1,.85-.292.5.5,0,0,0,.285-.141.991.991,0,0,1,.743-.31.637.637,0,0,1,.322.1,1.216,1.216,0,0,1,.456.389,7.738,7.738,0,0,1,.439.644.716.716,0,0,1,0,.575,2.229,2.229,0,0,0-.188.652.471.471,0,0,1-.027.144.414.414,0,0,0,.025.344c.017.04.064.069.112.119a1.7,1.7,0,0,1-.1.141.116.116,0,0,0-.02.136,1.1,1.1,0,0,0,.045.109,7.122,7.122,0,0,0,.386.666,1.16,1.16,0,0,1,.235.577.694.694,0,0,0,.322.525c.129.092.134.164.032.275Zm2.656-3.077c.027-.015.055-.04.082-.04s.04.03.072.057c-.037.022-.064.05-.082.045a.376.376,0,0,1-.079-.069Z" transform="translate(-223.713 -37.093)" fill="#00b9ff"/></g></svg>