<svg xmlns="http://www.w3.org/2000/svg" width="24" height="24" viewBox="0 0 24 24"><g fill="#505050" stroke="rgba(0,0,0,0)" stroke-width="1" opacity="0"><rect width="24" height="24" stroke="none"/><rect x="0.5" y="0.5" width="23" height="23" fill="none"/></g><path d="M12,8a4,4,0,1,1-4,4,4,4,0,0,1,4-4m0,2a2,2,0,1,0,2,2,2,2,0,0,0-2-2M10,22a.506.506,0,0,1-.5-.42l-.37-2.65a6.945,6.945,0,0,1-1.69-.99L4.95,18.95a.5.5,0,0,1-.61-.22l-2-3.46a.493.493,0,0,1,.12-.64l2.11-1.66L4.5,12l.07-1L2.46,9.37a.493.493,0,0,1-.12-.64l2-3.46a.492.492,0,0,1,.61-.22l2.49,1a7.249,7.249,0,0,1,1.69-.98L9.5,2.42A.506.506,0,0,1,10,2h4a.506.506,0,0,1,.5.42l.37,2.65a7.249,7.249,0,0,1,1.69.98l2.49-1a.492.492,0,0,1,.61.22l2,3.46a.493.493,0,0,1-.12.64L19.43,11l.07,1-.07,1,2.11,1.63a.493.493,0,0,1,.12.64l-2,3.46a.492.492,0,0,1-.61.22l-2.49-1a7.249,7.249,0,0,1-1.69.98l-.37,2.65A.506.506,0,0,1,14,22H10M11.25,4l-.37,2.61A5.492,5.492,0,0,0,7.85,8.39L5.44,7.35l-.75,1.3L6.8,10.2a5.55,5.55,0,0,0,0,3.6L4.68,15.36l.75,1.3,2.43-1.04a5.444,5.444,0,0,0,3.01,1.76L11.24,20h1.52l.37-2.61a5.518,5.518,0,0,0,3.01-1.77l2.43,1.04.75-1.3L17.2,13.81a5.58,5.58,0,0,0,0-3.61l2.11-1.55-.75-1.3L16.15,8.39a5.42,5.42,0,0,0-3.03-1.77L12.75,4Z" transform="translate(-0.271)" fill="#505050"/></svg>