<svg xmlns="http://www.w3.org/2000/svg" width="25.192" height="25.192" viewBox="0 0 25.192 25.192"><rect width="25.192" height="25.192" fill="#505050" opacity="0"/><path d="M5.2,9.4v12.6H1V9.4H5.2m4.2,12.6a2.1,2.1,0,0,1-2.1-2.1V9.4a2.052,2.052,0,0,1,.619-1.48L14.824,1l1.113,1.113a1.555,1.555,0,0,1,.462,1.1l-.031.336-1,4.8h6.623a2.1,2.1,0,0,1,2.1,2.1v2.1a2.074,2.074,0,0,1-.147.766l-3.17,7.4a2.085,2.085,0,0,1-1.931,1.281H9.4m0-2.1h9.478l3.117-7.348v-2.1H12.767l1.186-5.584L9.4,9.429Z" transform="translate(0.05 1.099)" fill="#505050"/></svg>