<svg xmlns="http://www.w3.org/2000/svg" width="31" height="30" viewBox="0 0 31 30"><g transform="translate(0.343 0)"><rect width="31" height="30" transform="translate(-0.343 0)" fill="#505050" opacity="0"/><path d="M11.563,26.08h4.893a2.448,2.448,0,1,1-4.893,0m13.456-2.535v1.267H3V23.545L5.447,21.01v-7.6a8.786,8.786,0,0,1,6.116-8.491v-.38a2.448,2.448,0,1,1,4.893,0v.38a8.786,8.786,0,0,1,6.116,8.491v7.6l2.447,2.535M20.126,13.406a6.12,6.12,0,1,0-12.233,0v8.872H20.126Z" transform="translate(1.647 0.471)" fill="#505050"/></g></svg>