<svg xmlns="http://www.w3.org/2000/svg" width="40.213" height="40.213" viewBox="0 0 40.213 40.213"><rect width="40.213" height="40.213" fill="#505050" opacity="0"/><path d="M2,25.782v5.027H15.4V27.642H5.184v-1.86c0-1.072,5.244-3.519,10.221-3.519a19.594,19.594,0,0,1,4.742.637l2.547-2.547A24.309,24.309,0,0,0,15.4,19.08c-4.474,0-13.4,2.228-13.4,6.7M15.4,4a6.7,6.7,0,1,0,6.7,6.7A6.7,6.7,0,0,0,15.4,4m0,10.053A3.351,3.351,0,1,1,18.756,10.7,3.35,3.35,0,0,1,15.4,14.053m19.6,5.613-1.676,1.676L29.9,17.991l1.676-1.676a.92.92,0,0,1,1.29,0l2.145,2.145a.92.92,0,0,1,0,1.29M18.756,29.033,28.909,18.879l3.435,3.351L22.291,32.4H18.756V29.033" transform="translate(1.351 2.702)" fill="#505050"/></svg>