<svg xmlns="http://www.w3.org/2000/svg" width="30.212" height="30.212" viewBox="0 0 30.212 30.212"><g transform="translate(0 0)"><rect width="30.212" height="30.212" transform="translate(0 0)" fill="#505050" opacity="0"/><path d="M14.588,3C7.665,3,2,7.507,2,13.071a9.086,9.086,0,0,0,3.462,6.923c0,.755-.529,2.732-3.462,5.665a13.89,13.89,0,0,0,8.145-3.147,16.059,16.059,0,0,0,4.444.629c6.924,0,12.588-4.507,12.588-10.071S21.512,3,14.588,3m0,17.623c-5.564,0-10.071-3.386-10.071-7.553S9.024,5.518,14.588,5.518,24.659,8.9,24.659,13.071s-4.507,7.553-10.071,7.553m6.294-6.294V11.812H18.365v2.518h2.518m-5.035,0V11.812H13.329v2.518h2.518m-5.035,0V11.812H8.294v2.518Z" transform="translate(0.518 0.776)" fill="#505050"/></g></svg>