<svg id="bookmark-plus" xmlns="http://www.w3.org/2000/svg" width="22.816" height="25.332" viewBox="0 0 22.816 25.332">
  <g id="Group_132" data-name="Group 132">
    <path id="Path_1" data-name="Path 1" d="M9.383,4.005a.878.878,0,0,0-.878.878V24.3l7.02-4.681,7.02,4.681V15.413a.878.878,0,1,1,1.755,0V27.582l-8.775-5.849L6.75,27.582V4.883A2.633,2.633,0,0,1,9.383,2.25H16.4a.878.878,0,1,1,0,1.755Zm15.8-1.755a.878.878,0,0,1,.878.878v3.51a.878.878,0,0,1-.878.878h-3.51a.878.878,0,0,1,0-1.755H24.3V3.128A.878.878,0,0,1,25.178,2.25Z" transform="translate(-6.75 -2.25)" fill="#fff" fill-rule="evenodd"/>
    <path id="Path_2" data-name="Path 2" d="M29.25,7.628a.878.878,0,0,1,.878-.878h3.51a.878.878,0,1,1,0,1.755H31.005v2.633a.878.878,0,1,1-1.755,0Z" transform="translate(-11.699 -3.24)" fill="#fff" fill-rule="evenodd"/>
  </g>
</svg>
