<svg xmlns="http://www.w3.org/2000/svg" width="37.162" height="59.386" viewBox="0 0 37.162 59.386">
  <g id="Group_133" data-name="Group 133" transform="translate(-438.529 -1545.103)">
    <path id="Path_144" data-name="Path 144" d="M137.511-1288.414V-1347.8l-18.2,10.838L100.349-1347.8v59.386Z" transform="translate(338.181 2892.903)" fill="#d5d5d5"/>
    <path id="Icon_feather-thumbs-up" data-name="Icon feather-thumbs-up" d="M14.17,9.516V5.792A2.792,2.792,0,0,0,11.377,3L7.654,11.377V21.616h10.5a1.862,1.862,0,0,0,1.862-1.582L21.3,11.657a1.862,1.862,0,0,0-1.862-2.141Zm-6.516,12.1H4.862A1.862,1.862,0,0,1,3,19.755V13.239a1.862,1.862,0,0,1,1.862-1.862H7.654" transform="translate(444.825 1558.672)" fill="none" stroke="#fff" stroke-linecap="round" stroke-linejoin="round" stroke-width="2"/>
  </g>
</svg>
