<svg xmlns="http://www.w3.org/2000/svg" width="648.867" height="548.873" viewBox="0 0 648.867 548.873">
  <g id="Group_132" data-name="Group 132" transform="translate(-661.97 -138.492)">
    <path id="Path_9" data-name="Path 9" d="M668.718,452.891H493.832a17.7,17.7,0,0,1-17.678-17.678V203.644a17.7,17.7,0,0,1,17.678-17.679H668.718A17.7,17.7,0,0,1,686.4,203.643V435.213A17.7,17.7,0,0,1,668.718,452.891Z" transform="translate(411.138 15.663)" fill="#e6e6e6"/>
    <path id="Path_10" data-name="Path 10" d="M659.988,441.835h-150.3a15.714,15.714,0,0,1-15.7-15.7V220.073a15.714,15.714,0,0,1,15.7-15.7h150.3a15.714,15.714,0,0,1,15.7,15.7V426.138A15.714,15.714,0,0,1,659.988,441.835Z" transform="translate(407.575 11.986)" fill="#fff"/>
    <path id="Path_11" data-name="Path 11" d="M651.674,251.352H531.362a3.924,3.924,0,0,1,0-7.848H651.674a3.924,3.924,0,1,1,0,7.848Z" transform="translate(400.895 4.171)" fill="#e4e4e4"/>
    <path id="Path_12" data-name="Path 12" d="M651.674,270.726H531.362a3.924,3.924,0,1,1,0-7.848H651.674a3.924,3.924,0,1,1,0,7.848Z" transform="translate(400.895 0.301)" fill="#e4e4e4"/>
    <path id="Path_13" data-name="Path 13" d="M583.514,290.1H531.362a3.924,3.924,0,1,1,0-7.848h52.152a3.924,3.924,0,1,1,0,7.848Z" transform="translate(400.895 -3.568)" fill="#e4e4e4"/>
    <path id="Path_14" data-name="Path 14" d="M651.674,330.678H531.362a3.924,3.924,0,0,1,0-7.848H651.674a3.924,3.924,0,1,1,0,7.848Z" transform="translate(400.895 -11.673)" fill="#e4e4e4"/>
    <path id="Path_15" data-name="Path 15" d="M651.674,350.053H531.362a3.924,3.924,0,1,1,0-7.848H651.674a3.924,3.924,0,1,1,0,7.848Z" transform="translate(400.895 -15.542)" fill="#e4e4e4"/>
    <path id="Path_16" data-name="Path 16" d="M583.514,369.427H531.362a3.924,3.924,0,1,1,0-7.848h52.152a3.924,3.924,0,1,1,0,7.848Z" transform="translate(400.895 -19.412)" fill="#e4e4e4"/>
    <path id="Path_17" data-name="Path 17" d="M651.674,410H531.362a3.924,3.924,0,0,1,0-7.848H651.674a3.924,3.924,0,1,1,0,7.848Z" transform="translate(400.895 -27.516)" fill="#e4e4e4"/>
    <path id="Path_18" data-name="Path 18" d="M651.674,429.379H531.362a3.924,3.924,0,1,1,0-7.848H651.674a3.924,3.924,0,1,1,0,7.848Z" transform="translate(400.895 -31.386)" fill="#e4e4e4"/>
    <path id="Path_19" data-name="Path 19" d="M583.514,448.753H531.362a3.924,3.924,0,1,1,0-7.848h52.152a3.924,3.924,0,1,1,0,7.848Z" transform="translate(400.895 -35.255)" fill="#e4e4e4"/>
    <path id="Path_20" data-name="Path 20" d="M315.069,215.9,184.355,104.095H96.539v-1.647h88.425l131.176,112.2Z" transform="translate(642.689 118.03)" fill="#2f2e41"/>
    <circle id="Ellipse_15" data-name="Ellipse 15" cx="13.177" cy="13.177" r="13.177" transform="translate(726.051 208.125)" fill="#00b9ff"/>
    <path id="Path_21" data-name="Path 21" d="M318.835,263.974H198.522a3.924,3.924,0,0,1,0-7.848H318.835a3.924,3.924,0,0,1,0,7.848Z" transform="translate(467.372 1.65)" fill="#00b9ff"/>
    <path id="Path_22" data-name="Path 22" d="M318.835,283.347H198.522a3.924,3.924,0,0,1,0-7.848H318.835a3.924,3.924,0,0,1,0,7.848Z" transform="translate(467.372 -2.219)" fill="#00b9ff"/>
    <path id="Path_23" data-name="Path 23" d="M250.675,302.722H198.522a3.924,3.924,0,1,1,0-7.848h52.153a3.924,3.924,0,1,1,0,7.848Z" transform="translate(467.372 -6.089)" fill="#00b9ff"/>
    <path id="Path_24" data-name="Path 24" d="M412.912,127.637l131.176-112.2h88.425v1.647H544.7L413.983,128.888Z" transform="translate(579.501 135.409)" fill="#2f2e41"/>
    <circle id="Ellipse_16" data-name="Ellipse 16" cx="13.177" cy="13.177" r="13.177" transform="translate(1198.836 138.492)" fill="#00b9ff"/>
    <path id="Path_25" data-name="Path 25" d="M962.867,176.384H842.554a3.924,3.924,0,1,1,0-7.848H962.867a3.924,3.924,0,1,1,0,7.848Z" transform="translate(338.742 19.144)" fill="#00b9ff"/>
    <path id="Path_26" data-name="Path 26" d="M962.867,195.758H842.554a3.924,3.924,0,1,1,0-7.848H962.867a3.924,3.924,0,1,1,0,7.848Z" transform="translate(338.742 15.274)" fill="#00b9ff"/>
    <path id="Path_27" data-name="Path 27" d="M894.707,215.133H842.554a3.924,3.924,0,0,1,0-7.848h52.153a3.924,3.924,0,0,1,0,7.848Z" transform="translate(338.742 11.405)" fill="#00b9ff"/>
    <path id="Path_28" data-name="Path 28" d="M874.945,563.532a6.855,6.855,0,0,1,1.367-10.423l-5.618-23.7,11.891,4.344,3.512,21.844a6.893,6.893,0,0,1-11.152,7.939Z" transform="translate(332.338 -52.931)" fill="#9e616a"/>
    <path id="Path_29" data-name="Path 29" d="M840.275,436.693l4.772,12.271s-2.045,12.271,1.363,15,2.045,2.727,2.045,4.772a10.487,10.487,0,0,0,4.09,7.5c2.727,2.045,15,43.631,15,43.631h12.271a38.441,38.441,0,0,1,0-9.544c.682-4.772-2.045-17.043-3.409-19.088s0-4.772,0-8.863-2.727-6.136-2.727-12.953-8.181-59.992-7.5-66.128-6.817-11.589-6.817-11.589h-6.817Z" transform="translate(338.413 -25.427)" fill="#e6e7e8"/>
    <path id="Path_30" data-name="Path 30" d="M606.767,372.472l-11.342,50.617,72.682-4.522-19.764-49.711Z" transform="translate(543.048 64.822)" fill="#9e616a"/>
    <path id="Path_31" data-name="Path 31" d="M982.549,706.384a77.551,77.551,0,0,1-10.012,22.032c-9.987,15.1-24.28,26.649-39.99,35.892-1.088.648-2.193,1.28-3.3,1.9h-11.02l-.384-.88v-.008l-.448-1.016-.056-.12-.024.12-.44,1.9h-5.41c-.448-.632-.888-1.264-1.321-1.9-.632-.936-1.24-1.881-1.817-2.841a46.1,46.1,0,0,1-2.721-5.218c-.1-.2-.176-.4-.256-.6l.36-.392-1.5-6.546,3.009-.5-3.3-10.172c.12-.376.256-.752.4-1.128,1.849-4.682,5.322-8.179,9.443-11.116,4.241-3.033,9.179-5.466,13.717-7.995,2.129-1.193,4.225-2.449,6.266-3.777v-.008q3.914-2.533,7.595-5.418a1.141,1.141,0,0,0,.12-.088.873.873,0,0,0,.1-.08,112.755,112.755,0,0,0,27.457-31.155.007.007,0,0,0,.006,0,.008.008,0,0,0,0-.006c.24-.384.464-.768.688-1.16V676.1a109.027,109.027,0,0,0,7.531-15.725v-.008c.16-.4.3-.8.456-1.2q.312.528.6,1.056l.006,0a.008.008,0,0,1,0,.006C986.078,674.117,986.814,690.843,982.549,706.384Z" transform="translate(325.7 -78.848)" fill="#f0f0f0"/>
    <path id="Path_32" data-name="Path 32" d="M981.786,660.133a97.115,97.115,0,0,1-2.3,22.04,94.862,94.862,0,0,1-2.689,9.8,97.12,97.12,0,0,1-8.107,18.086c-.184.312-.36.616-.552.92v.008a81.888,81.888,0,0,1-4.6,6.93,38.191,38.191,0,0,1-9.123,9.171,24.079,24.079,0,0,1-9.587,3.705c-.64.12-1.3.208-1.961.288-2.649.312-5.386.432-8.011.992A17.479,17.479,0,0,0,931,733.31c-4.225,1.961-6.6,6.066-7.643,10.452-.184.768-.328,1.545-.44,2.321-.872,5.962.088,12.156-.408,18.126-.056.632-.128,1.272-.216,1.9H921.7l-.384-.88v-.008c.04-.336.072-.672.1-1.016a77.07,77.07,0,0,0,.072-8.811c-.032-1.321-.056-2.649-.04-3.977.016-1.064.056-2.129.136-3.185v-.008c.056-.656.12-1.3.208-1.953a25.275,25.275,0,0,1,1.457-5.8,14.526,14.526,0,0,1,8.259-8.547,21.573,21.573,0,0,1,3.577-1c2.681-.512,5.45-.64,8.147-.976.288-.032.576-.072.856-.12.36-.056.712-.12,1.064-.184a22.942,22.942,0,0,0,9.731-4.218,41.535,41.535,0,0,0,8.787-9.539c1.312-1.88,2.561-3.8,3.721-5.778a.008.008,0,0,1,0-.006l.006,0c.056-.1.112-.184.168-.28l.008-.016a95.693,95.693,0,0,0,10.772-27.345c.072-.352.152-.7.232-1.056a96.739,96.739,0,0,0,2.137-21.127v-.008c0-.336-.008-.664-.016-1-.016-.688,1.048-.84,1.064-.152.008.336.016.672.008,1.008l.006,0a.007.007,0,0,1,0,.006Z" transform="translate(322.227 -78.749)" fill="#fff"/>
    <path id="Path_33" data-name="Path 33" d="M979.18,722.458a14.42,14.42,0,0,0,18.162-4.334c.407-.56-.443-1.219-.851-.658a13.352,13.352,0,0,1-16.9,4C978.973,721.146,978.568,722.143,979.18,722.458Z" transform="translate(310.731 -90.449)" fill="#fff"/>
    <path id="Path_34" data-name="Path 34" d="M950.607,742.527a27.792,27.792,0,0,1,.984-20.23c.284-.632-.712-1.039-1-.408a28.908,28.908,0,0,0-.981,21.053C949.838,743.6,950.829,743.181,950.607,742.527Z" transform="translate(316.88 -91.312)" fill="#fff"/>
    <path id="Path_35" data-name="Path 35" d="M991.606,685.788a8.162,8.162,0,0,1-5.62-5.329c-.214-.659-1.205-.24-.992.415a9.146,9.146,0,0,0,6.2,5.909.556.556,0,0,0,.7-.293A.541.541,0,0,0,991.606,685.788Z" transform="translate(309.515 -83.034)" fill="#fff"/>
    <path id="Path_36" data-name="Path 36" d="M930.7,710.789v.008a105.051,105.051,0,0,1-2.136,17v.008c-.064.384-.152.76-.232,1.136a147.649,147.649,0,0,1-8.091,25.3q-1.428,3.457-2.993,6.842c-.288.64-.584,1.272-.888,1.9h-1.185l-.384-.88v-.008l-.448-1.016-.056-.12-.024.12-.44,1.9H902.378l-2.225-1.9-3.241-2.777,4.53-4.946.744-.816.112-.12.36-.392-1.5-6.546,3.009-.5-3.3-10.172-1.56-4.81-.392-1.208-2.281-7.034-6.882,1.288-1.12-3.921a108.817,108.817,0,0,0,5.138-14.733c.008-.04.024-.072.032-.112a113.3,113.3,0,0,0,3.217-41.582v-.008c-.048-.448-.1-.9-.168-1.344v-.016a106.966,106.966,0,0,0-3.457-17.078c-.112-.424-.24-.84-.36-1.256.368.16.728.312,1.1.472l.008.008h.016c.584.256,1.168.528,1.737.816,13.653,6.634,23.7,19.086,29.4,33.443.016.04.032.072.048.112A77.142,77.142,0,0,1,930.6,701.4,91.907,91.907,0,0,1,930.7,710.789Z" transform="translate(328.754 -75.618)" fill="#f0f0f0"/>
    <path id="Path_37" data-name="Path 37" d="M913.128,790.322h-1.264c-.4-.648-.832-1.28-1.264-1.9q-1.033-1.452-2.129-2.841c-.632-.8-1.265-1.593-1.9-2.385-.656-.824-1.3-1.648-1.937-2.5l.744-.816c.12.16.24.32.368.48,2.049,2.7,4.265,5.29,6.162,8.059C912.336,789.041,912.744,789.673,913.128,790.322Z" transform="translate(325.558 -102.957)" fill="#fff"/>
    <path id="Path_38" data-name="Path 38" d="M893.774,643.32c.208.264.424.536.624.808q2.341,3.037,4.426,6.266a94.47,94.47,0,0,1,6.578,11.884c.152.32.3.648.448.976a95.45,95.45,0,0,1,7.875,28.362c.016.1.024.184.032.28q.4,3.433.512,6.89a41.442,41.442,0,0,1-1.272,12.9c-.16.552-.336,1.1-.528,1.625a21.872,21.872,0,0,1-1.8,3.721,22.372,22.372,0,0,1-1.713,2.473c-.376.48-.768.952-1.184,1.409-.24.264-.488.528-.736.792-.208.2-.408.408-.616.608-2.161,2.1-4.545,4.041-6.5,6.354l.392,1.208a64.9,64.9,0,0,1,6.49-6.442,30.333,30.333,0,0,0,3.729-4.225c.144-.208.3-.416.432-.632a21.42,21.42,0,0,0,1.913-3.433c.272-.6.52-1.216.744-1.857a38.327,38.327,0,0,0,1.761-12.8,82.75,82.75,0,0,0-.5-8.315c-.032-.36-.072-.712-.12-1.072a98.1,98.1,0,0,0-15.429-41.87q-1.98-3.013-4.2-5.882c-.192-.264-.392-.52-.6-.784C894.11,642.016,893.35,642.776,893.774,643.32Z" transform="translate(327.753 -75.494)" fill="#fff"/>
    <path id="Path_39" data-name="Path 39" d="M919.393,701a14.42,14.42,0,0,0,11.892-14.4.538.538,0,0,0-1.076-.013,13.352,13.352,0,0,1-11.089,13.368c-.682.118-.4,1.158.273,1.04Z" transform="translate(322.745 -84.223)" fill="#fff"/>
    <path id="Path_40" data-name="Path 40" d="M908.529,736.479a27.792,27.792,0,0,1-11.394-16.745c-.154-.675-1.194-.4-1.04.273a28.908,28.908,0,0,0,11.892,17.4C908.56,737.8,909.1,736.867,908.529,736.479Z" transform="translate(327.268 -90.867)" fill="#fff"/>
    <path id="Path_41" data-name="Path 41" d="M906.618,666.86a8.162,8.162,0,0,1-7.7-.872c-.568-.4-1.107.534-.542.929a9.146,9.146,0,0,0,8.511.983.556.556,0,0,0,.384-.657A.541.541,0,0,0,906.618,666.86Z" transform="translate(326.856 -80.191)" fill="#fff"/>
    <path id="Path_42" data-name="Path 42" d="M621.715,657.435H613.55l-3.884-31.492h12.05Z" transform="translate(540.204 13.475)" fill="#9e616a"/>
    <path id="Path_43" data-name="Path 43" d="M817.746,786.672h-5.794l-1.034-5.47-2.648,5.47H792.9a3.454,3.454,0,0,1-1.963-6.3l12.27-8.474v-5.53l12.906.77Z" transform="translate(348.564 -100.259)" fill="#2f2e41"/>
    <path id="Path_44" data-name="Path 44" d="M716.542,652.538l-7.979,1.731L698.09,624.316l11.777-2.554Z" transform="translate(522.543 14.31)" fill="#9e616a"/>
    <path id="Path_45" data-name="Path 45" d="M918.111,780.382l-5.662,1.228-2.17-5.126-1.429,5.907-15.016,3.258a3.454,3.454,0,0,1-3.253-5.737l10.2-10.883-1.172-5.4,12.776-1.983Z" transform="translate(328.552 -99.314)" fill="#2f2e41"/>
    <path id="Path_46" data-name="Path 46" d="M931.14,791.5a.949.949,0,0,1-.952.952H705.879a.952.952,0,0,1,0-1.9H930.188a.95.95,0,0,1,.952.952Z" transform="translate(365.446 -105.088)" fill="#ccc"/>
    <path id="Path_47" data-name="Path 47" d="M786.962,580.43c5.73,31.491,7.162,45.087,7.162,45.087s-4.3,5.01-1.432,7.875,0,8.587,0,8.587l6.442,69.424,5.186-.84,12.492-2.009,4.506-.728L818.452,642.7s2.865-5.73,1.432-7.162,1.432-10.02,1.432-10.02l3.577-67.991,22.192,74.433s-2.153,2.865,0,5.01,6.434,12.884,6.434,12.884l13.2,46.176,1.12,3.921,6.882-1.288,7.491-1.408,1.376-.256,2.449-.464,1.577-.3.536-.1,2.593-.488-.784-3.481-.408-1.833-11.164-49.585-.256-1.144-.272-1.208s1.432-3.577-.712-5.73a5.593,5.593,0,0,1-1.432-5.01,1.951,1.951,0,0,0,.192-.24,2.973,2.973,0,0,0,.512-1.168c.192-.9.024-2.153-1.425-3.6a6.114,6.114,0,0,1-1.016-1.457c-2.177-4.121-3.273-12.852-3.273-12.852s-1.937-69.152-8.275-79.715c-.336-.552-7.065-11.153-7.417-11.369-7.154-4.289-66.194,1.635-66.194,1.635s-3.376,9.07-3.528,10.014C784.465,534.215,782.1,553.717,786.962,580.43Z" transform="translate(349.655 -50.194)" fill="#2f2e41"/>
    <path id="Path_48" data-name="Path 48" d="M785.13,563.422A6.855,6.855,0,0,0,783.763,553l5.618-23.7-11.891,4.344-3.512,21.845a6.893,6.893,0,0,0,11.152,7.939Z" transform="translate(351.824 -52.909)" fill="#9e616a"/>
    <path id="Path_49" data-name="Path 49" d="M797.157,386.224a152.807,152.807,0,0,1,17.478-20.364c6.136-2.045,16.766-.853,20.452,0,17.043,22.5,18.116,21,22.552,33.572,1.15,3.26,1.726,6.391,1.214,8.948-2.045,10.226,1.233,61.894,1.915,64.621s5.454,6.136.682,6.136-77.036-2.727-75.672-4.772S797.157,386.224,797.157,386.224Z" transform="translate(349.301 -20.041)" fill="#e6e7e8"/>
    <path id="Path_50" data-name="Path 50" d="M801.689,391.588h-6.817s-7.5,5.454-6.817,11.59-7.5,59.311-7.5,66.128-2.727,8.862-2.727,12.953,1.363,6.817,0,8.863-4.09,14.316-3.409,19.089a38.443,38.443,0,0,1,0,9.544H786.69s12.271-41.586,15-43.631a10.487,10.487,0,0,0,4.09-7.5c0-2.045-1.363-2.045,2.045-4.772s1.364-15,1.364-15l4.772-12.271Z" transform="translate(351.588 -25.405)" fill="#e6e7e8"/>
    <circle id="Ellipse_17" data-name="Ellipse 17" cx="19.741" cy="19.741" r="19.741" transform="translate(1147.538 297.612)" fill="#9e616a"/>
    <path id="Path_51" data-name="Path 51" d="M806.511,358.5l-1.852-8.116a20.862,20.862,0,0,1,2.879-15.95,14.5,14.5,0,0,0,.446-14.795,11.379,11.379,0,0,0-9.914-6.245h-.493V312.9c0-7.078,5.516-12.075,10.645-12.361.185-1.473,1.229-2.793,3.047-3.842,4.342-2.5,12.738-3.047,19.082.29a6.015,6.015,0,0,1,3.713-4.921,5.932,5.932,0,0,1,3.242-.186,7.342,7.342,0,0,1,2.063-4.731c1.751-1.7,4.561-2.342,7.71-1.773,4.323.785,8.585,3.539,12,7.757,3.027,3.739,5.129,8.146,7.162,12.408,2,4.191,4.065,8.525,7.061,12.194,3.282,4.02,7.349,6.625,11.451,7.334,4.784.828,9.694-1.142,11.941-4.789l.446-.724.406.747c2.524,4.638,1.492,11.012-2.456,15.155a18.143,18.143,0,0,1-14.856,5.059c-4.877-.464-9.8-2.536-14.621-6.16-4.793-3.6-7.756-7.577-8.809-11.824a32.05,32.05,0,0,1-.633-3.986c-.326-2.808-.634-5.461-2.362-7.414-1.552-1.756-3.955-2.516-6.086-3.091l-.418-.112a5.463,5.463,0,0,1-2.329,3.968,3.942,3.942,0,0,1-1.272.49c2.47,9.943,1.455,17.555-3.022,22.63-7.556,8.568-22.075,6.806-22.69,6.727l-.409-.053-.021-.412a22.9,22.9,0,0,0-.4-3.289c-2.079,5.011-9.075,18.26-10.011,19.6Z" transform="translate(346.941 -4.152)" fill="#2f2e41"/>
  </g>
</svg>
