<svg xmlns="http://www.w3.org/2000/svg" width="218.346" height="154.846" viewBox="0 0 218.346 154.846">
  <g id="post_article" data-name="post article" transform="translate(-281.604 -3363.511)">
    <path id="Path_52" data-name="Path 52" d="M478.066,236.787H310.188a4.5,4.5,0,0,0-4.5,4.5V361.961a4.5,4.5,0,0,0,4.5,4.5H478.066a4.5,4.5,0,0,0,4.5-4.5V241.283a4.5,4.5,0,0,0-4.5-4.5ZM314.914,243.84a2.17,2.17,0,1,1,2.17-2.17,2.17,2.17,0,0,1-2.17,2.17Zm13.021,0a2.17,2.17,0,1,1,2.17-2.17,2.17,2.17,0,0,1-2.17,2.17Zm13.021,0a2.17,2.17,0,1,1,2.17-2.17,2.17,2.17,0,0,1-2.17,2.17Zm13.021,0a2.17,2.17,0,1,1,2.17-2.17,2.17,2.17,0,0,1-2.17,2.17Zm13.021,0a2.17,2.17,0,1,1,2.17-2.17,2.17,2.17,0,0,1-2.17,2.17Zm13.021,0a2.17,2.17,0,1,1,2.17-2.17,2.17,2.17,0,0,1-2.17,2.17Zm13.021,0a2.17,2.17,0,1,1,2.17-2.17,2.17,2.17,0,0,1-2.17,2.17Zm13.021,0a2.17,2.17,0,1,1,2.17-2.17,2.17,2.17,0,0,1-2.17,2.17Zm13.021,0a2.17,2.17,0,1,1,2.17-2.17,2.17,2.17,0,0,1-2.17,2.17Zm13.021,0a2.17,2.17,0,1,1,2.17-2.17,2.17,2.17,0,0,1-2.17,2.17Zm13.021,0a2.17,2.17,0,1,1,2.17-2.17,2.17,2.17,0,0,1-2.17,2.17Zm13.021,0a2.17,2.17,0,1,1,2.17-2.17,2.17,2.17,0,0,1-2.17,2.17Zm13.021,0a2.17,2.17,0,1,1,2.17-2.17,2.17,2.17,0,0,1-2.17,2.17Z" transform="translate(-15.406 3138.66)" fill="#cacaca"/>
    <path id="Path_53" data-name="Path 53" d="M452.146,201.147H284.267a4.5,4.5,0,0,0-4.5,4.5V326.321a4.5,4.5,0,0,0,4.5,4.5H452.146a4.5,4.5,0,0,0,4.5-4.5V205.643a4.5,4.5,0,0,0-4.5-4.5ZM288.994,208.2a2.17,2.17,0,1,1,2.17-2.17,2.17,2.17,0,0,1-2.17,2.17Zm13.021,0a2.17,2.17,0,1,1,2.17-2.17,2.17,2.17,0,0,1-2.17,2.17Zm13.021,0a2.17,2.17,0,1,1,2.17-2.17,2.17,2.17,0,0,1-2.17,2.17Zm13.021,0a2.17,2.17,0,1,1,2.17-2.17A2.17,2.17,0,0,1,328.058,208.2Zm13.021,0a2.17,2.17,0,1,1,2.17-2.17A2.17,2.17,0,0,1,341.079,208.2Zm13.021,0a2.17,2.17,0,1,1,2.17-2.17A2.17,2.17,0,0,1,354.1,208.2Zm13.021,0a2.17,2.17,0,1,1,2.17-2.17A2.17,2.17,0,0,1,367.122,208.2Zm13.021,0a2.17,2.17,0,1,1,2.17-2.17A2.17,2.17,0,0,1,380.143,208.2Zm13.021,0a2.17,2.17,0,1,1,2.17-2.17A2.17,2.17,0,0,1,393.164,208.2Zm13.021,0a2.17,2.17,0,1,1,2.17-2.17,2.17,2.17,0,0,1-2.17,2.17Zm13.021,0a2.17,2.17,0,1,1,2.17-2.17,2.17,2.17,0,0,1-2.17,2.17Zm13.021,0a2.17,2.17,0,1,1,2.17-2.17A2.17,2.17,0,0,1,432.228,208.2Zm13.021,0a2.17,2.17,0,1,1,2.17-2.17,2.17,2.17,0,0,1-2.17,2.17Z" transform="translate(1.833 3162.364)" fill="#f0f0f0"/>
    <path id="Path_54" data-name="Path 54" d="M414.832,355.1a24.423,24.423,0,0,1,3.867-13.652A17.3,17.3,0,0,1,429.9,334a14.009,14.009,0,0,1,6.726.39,12.157,12.157,0,0,1,5.151,3.312c2.693,2.879,4.354,7.473,2.792,11.307a7.057,7.057,0,0,1-4.017,3.926,3.3,3.3,0,0,1-4.279-1.593,4.7,4.7,0,0,1,5.835-5.787,8.228,8.228,0,0,1,4.783,4.226,12.99,12.99,0,0,1,1.159,7.285c-.538,5.411-3.336,10.227-5.4,15.153-1.915,4.579-3.507,9.876-2.033,14.811a12,12,0,0,0,8.511,8.086c3.8,1.019,8.247.294,10.947-2.747a8.2,8.2,0,0,0,2.215-5.248,5.129,5.129,0,0,0-2.535-4.523c-3.289-1.84-7.731.051-9.109,3.417a8.841,8.841,0,0,0,.112,6.477,11.965,11.965,0,0,0,4.139,5.26,21.913,21.913,0,0,0,6.441,3.106,36.626,36.626,0,0,0,7.265,1.577c4.709.5,9.623-.283,13.314-3.439,3.246-2.775,5.033-6.884,5.942-10.975,1.055-4.748.9-9.6.906-14.427.01-5.148.141-10.767,2.621-15.421,1.95-3.659,5.4-6.863,9.511-7.82a9.215,9.215,0,0,1,5.692.468c.6.25.855-.722.267-.969-3.954-1.658-8.3-.357-11.568,2.167a17.791,17.791,0,0,0-4.311,4.84,20.691,20.691,0,0,0-2.47,6.785c-1.9,9.707,1.04,20.187-3.394,29.414a15.964,15.964,0,0,1-3.616,4.973,13.574,13.574,0,0,1-6.138,3.12c-4.812,1.091-10.033.056-14.613-1.549-4.39-1.538-8.778-4.424-9.564-9.363a6.463,6.463,0,0,1,1.689-5.755,6.013,6.013,0,0,1,4.909-1.516,4.09,4.09,0,0,1,3.45,3.386,6.735,6.735,0,0,1-1.867,5.3c-2.735,3.077-7.306,3.508-11.016,2.158a11.369,11.369,0,0,1-4.739-3.253,11.2,11.2,0,0,1-2.5-6.356c-.434-5.268,1.844-10.334,3.984-15.005,2.18-4.759,4.523-9.984,3.97-15.352a11.844,11.844,0,0,0-2.594-6.491,8,8,0,0,0-5.5-3.012,5.362,5.362,0,0,0-4.591,2.133,5.625,5.625,0,0,0-1.192,4.765,4.083,4.083,0,0,0,3.884,2.95,6.825,6.825,0,0,0,4.983-2.52c2.783-3.168,2.513-7.856.708-11.44a13.517,13.517,0,0,0-9.9-7.289,17.077,17.077,0,0,0-12.734,3.406,21.274,21.274,0,0,0-7.469,11.846,27.993,27.993,0,0,0-.831,6.905.5.5,0,0,0,1,0Z" transform="translate(-87.327 3074.824)" fill="#00b9ff"/>
    <path id="Path_61" data-name="Path 61" d="M809.986,303.126a9.425,9.425,0,0,1,5.57-6.236c2.729-.935,6.725.489,8.776,2.534,3.753,3.74,3.868,8.319,1.29,12.379-.513-.027-2.282-.047-2.8-.067l-.734-2.447v2.423c-4.051-.125-8.269-.047-12.489.034A20.1,20.1,0,0,1,809.986,303.126Z" transform="translate(-350.364 3098.881)" fill="#2f2e41"/>
    <path id="Path_62" data-name="Path 62" d="M756.943,399.108a2.557,2.557,0,0,1,1.652-3.555l10.9-20.574,4.4,3.4-12.1,19.156a2.57,2.57,0,0,1-4.855,1.577Z" transform="translate(-315.369 3046.75)" fill="#ffb6b6"/>
    <path id="Path_63" data-name="Path 63" d="M658.6,413.1h-3.7l-1.758-14.253H658.6Z" transform="translate(-202.703 3098.243)" fill="#ffb6b6"/>
    <path id="Path_64" data-name="Path 64" d="M726.6,413.1h-3.7l-1.758-14.253H726.6Z" transform="translate(-247.929 3098.243)" fill="#ffb6b6"/>
    <path id="Path_65" data-name="Path 65" d="M683.077,196.022l.837,2.177-.167,2.177-16.076-2.009.5-1.842,1.842-2.177Z" transform="translate(-212.36 3234.253)" fill="#ffb6b6"/>
    <circle id="Ellipse_19" data-name="Ellipse 19" cx="5.853" cy="5.853" r="5.853" transform="translate(459.684 3398.979)" fill="#ffb7b7"/>
    <path id="Path_66" data-name="Path 66" d="M798.477,349.173l3.349-2.009,6.7-.67,5.92,1.34-.059,10.885-3.756,9.552-15.741-2.009-.6-3.369s-4.354-5.848.335-9.2Z" transform="translate(-339.146 3065.695)" fill="#00b9ff"/>
    <path id="Path_67" data-name="Path 67" d="M803.085,407.673v3.72s4.354,5.658,2.009,10.012l6.717,57.941h-7.033l-11.741-48.9-5,47.894H782l-1-53.25s.651-13.733,4.335-16.078L787.028,406Z" transform="translate(-331.53 3026.118)" fill="#2f2e41"/>
    <path id="Path_68" data-name="Path 68" d="M809.972,299.636a7.351,7.351,0,0,1,11.176,6.415c-3.271.15-6.708.19-10.193.2l-.824-2.016-.485,2.017q-1.593,0-3.191,0A7.506,7.506,0,0,1,809.972,299.636Z" transform="translate(-348.458 3097.574)" fill="#2f2e41"/>
    <path id="Path_69" data-name="Path 69" d="M695.458,387.191l-2.616-1.027a1.405,1.405,0,0,1,1.028-2.616l2.616,1.027a1.405,1.405,0,0,1-1.028,2.616Z" transform="translate(-272.304 3041.116)" fill="#00b9ff"/>
    <path id="Path_70" data-name="Path 70" d="M759.061,404.629l-51.7-20.3a2.2,2.2,0,0,0-2.019.213l-2.069-.813a1.933,1.933,0,0,0-2.506,1.092l-.642,1.634a1.933,1.933,0,0,0,1.092,2.506l1.721.676a2.2,2.2,0,0,0,1.34,2.539l51.7,20.3a2.209,2.209,0,0,0,2.864-1.249l1.467-3.735A2.209,2.209,0,0,0,759.061,404.629Z" transform="translate(-277.655 3041.022)" fill="#3f3d56"/>
    <path id="Path_71" data-name="Path 71" d="M874.272,456.365l-19.435-7.633,4.11-10.464,19.435,7.633a3.483,3.483,0,0,1,1.966,4.509l-1.567,3.989A3.483,3.483,0,0,1,874.272,456.365Z" transform="translate(-380.639 3004.658)" fill="#2f2e41"/>
    <path id="Path_72" data-name="Path 72" d="M900.776,469.071l-9.469-3.719a1.942,1.942,0,0,1-1.1-2.515l.294-.748a1.942,1.942,0,0,1,2.515-1.1l9.469,3.719a1.942,1.942,0,0,1,1.1,2.515l-.294.748a1.942,1.942,0,0,1-2.515,1.1Z" transform="translate(-404.076 2989.633)" fill="#00b9ff"/>
    <path id="Path_73" data-name="Path 73" d="M824,412.39a2.635,2.635,0,0,1,.4.122l10.217-7.033-.234-3,4.488-.945.931,5.278a2,2,0,0,1-1.085,2.142l-12.656,6.242a2.625,2.625,0,1,1-2.056-2.8Z" transform="translate(-358.01 3029.091)" fill="#ffb6b6"/>
    <path id="Path_76" data-name="Path 76" d="M853.641,371.3l5.693,3.349c1.34-.67,1.081-5.014.263-5.268l-.617-14.493c-.335-6.7-5.634-4.856-5.634-4.856l-2.4.5,1.674,7.033,1.819,12.135A2,2,0,0,0,853.641,371.3Z" transform="translate(-378.049 3063.496)" fill="#00b9ff"/>
    <path id="Path_77" data-name="Path 77" d="M786.733,354.22s-4.6.073-6.035,2.547c-1.15,1.981-3.3,9.883-4.113,12.958a2.009,2.009,0,0,0-1.987,1.454l6.163,2.392c1.34-.67.968-1.6.628-2.078l2.3-3.443,2.679-1.34,1.111-11.855Z" transform="translate(-327.273 3060.557)" fill="#00b9ff"/>
    <path id="Path_78" data-name="Path 78" d="M779.708,645.254h-2.622l-.468-2.476-1.2,2.476h-6.954a1.563,1.563,0,0,1-.888-2.85l5.554-3.835v-2.5l5.841.349Z" transform="translate(-322.154 2873.103)" fill="#2f2e41"/>
    <path id="Path_79" data-name="Path 79" d="M848.708,645.254h-2.622l-.468-2.476-1.2,2.476h-6.954a1.563,1.563,0,0,1-.888-2.85l5.554-3.835v-2.5l5.841.349Z" transform="translate(-368.045 2873.103)" fill="#2f2e41"/>
  </g>
</svg>
