<svg id="undraw_Sharing_articles_re_jnkp" xmlns="http://www.w3.org/2000/svg" width="183.267" height="167.004" viewBox="0 0 183.267 167.004">
  <path id="Path_80" data-name="Path 80" d="M542.456,411.641H502.108a.533.533,0,0,1-.532-.532V366.715a.533.533,0,0,1,.532-.532h40.348a.533.533,0,0,1,.532.532v44.394A.533.533,0,0,1,542.456,411.641Z" transform="translate(-430.652 -300.314)" fill="#fff"/>
  <path id="Path_81" data-name="Path 81" d="M542.456,411.641H502.108a.533.533,0,0,1-.532-.532V366.715a.533.533,0,0,1,.532-.532h40.348a.533.533,0,0,1,.532.532v44.394A.533.533,0,0,1,542.456,411.641ZM502.108,366.4a.32.32,0,0,0-.319.319v44.393a.32.32,0,0,0,.319.319h40.348a.32.32,0,0,0,.319-.319V366.715a.32.32,0,0,0-.319-.319Z" transform="translate(-430.652 -300.314)" fill="#3f3d56"/>
  <path id="Path_82" data-name="Path 82" d="M547.285,405.087H537.278a.533.533,0,0,1-.532-.532V394.547a.533.533,0,0,1,.532-.532h10.007a.533.533,0,0,1,.532.532v10.007a.533.533,0,0,1-.532.532Zm-10.007-10.859a.32.32,0,0,0-.319.319v10.007a.32.32,0,0,0,.319.319h10.007a.32.32,0,0,0,.319-.319V394.547a.32.32,0,0,0-.32-.319Z" transform="translate(-458.423 -322.291)" fill="#f2f2f2"/>
  <path id="Path_83" data-name="Path 83" d="M533.822,411.305H523.814a.48.48,0,0,1-.479-.479V400.819a.48.48,0,0,1,.479-.479h10.007a.479.479,0,0,1,.479.479v10.007A.48.48,0,0,1,533.822,411.305Z" transform="translate(-447.834 -327.286)" fill="#00b9ff"/>
  <path id="Path_84" data-name="Path 84" d="M555.113,472.144h-31.3a.479.479,0,1,1,0-.958h31.3a.479.479,0,1,1,0,.958Z" transform="translate(-447.834 -383.227)" fill="#ccc"/>
  <path id="Path_85" data-name="Path 85" d="M547.555,487.831h-23.74a.479.479,0,1,1,0-.958h23.74a.479.479,0,0,1,0,.958Z" transform="translate(-447.835 -395.614)" fill="#ccc"/>
  <path id="Path_86" data-name="Path 86" d="M620.138,414.456H606.3a.479.479,0,0,1,0-.958h13.84a.479.479,0,1,1,0,.958Z" transform="translate(-512.965 -337.675)" fill="#00b9ff"/>
  <path id="Path_87" data-name="Path 87" d="M616.685,430.143H606.3a.479.479,0,0,1,0-.958h10.386a.479.479,0,0,1,0,.958Z" transform="translate(-512.966 -350.062)" fill="#00b9ff"/>
  <path id="Path_88" data-name="Path 88" d="M555.113,503.518h-31.3a.479.479,0,1,1,0-.958h31.3a.479.479,0,1,1,0,.958Z" transform="translate(-447.834 -408)" fill="#ccc"/>
  <path id="Path_89" data-name="Path 89" d="M547.555,519.2h-23.74a.479.479,0,1,1,0-.958h23.74a.479.479,0,0,1,0,.958Z" transform="translate(-447.835 -420.387)" fill="#ccc"/>
  <path id="Path_90" data-name="Path 90" d="M555.113,534.893h-31.3a.479.479,0,1,1,0-.958h31.3a.479.479,0,1,1,0,.958Z" transform="translate(-447.834 -432.775)" fill="#ccc"/>
  <path id="Path_91" data-name="Path 91" d="M555.113,550.58h-31.3a.479.479,0,1,1,0-.958h31.3a.479.479,0,1,1,0,.958Z" transform="translate(-447.834 -445.162)" fill="#ccc"/>
  <path id="Path_92" data-name="Path 92" d="M227.752,558.874a31.137,31.137,0,0,1-19.743,28.982c-.451.181-.916.351-1.383.509q-.783.268-1.582.492-.555.154-1.121.29a31.33,31.33,0,0,1-17.169-.732c-.435-.145-.867-.3-1.294-.463-.574-.221-1.142-.459-1.7-.713-.042-.017-.082-.036-.122-.055-.219-.1-.431-.2-.648-.309h0q-.445-.215-.881-.446-1-.53-1.963-1.13-.5-.309-.982-.642a31.123,31.123,0,0,1,11.15-56.28q.824-.17,1.664-.294c.351-.055.707-.1,1.062-.141.255-.029.509-.057.768-.078h0q1.038-.095,2.1-.118l.292-.006c.055,0,.109,0,.164,0h0c.084,0,.168,0,.255,0,.353,0,.707.006,1.058.019q1.161.038,2.3.16c.438.046.869.1,1.3.166l.147.023c.143.023.288.046.431.072.3.048.6.105.9.166.282.057.562.116.842.179a30.307,30.307,0,0,1,3.059.869,31.222,31.222,0,0,1,16.4,13.029q.161.256.316.518c.08.13.156.261.231.393q.041.066.076.133c.017.025.029.05.044.076.139.242.273.488.4.734A31,31,0,0,1,227.752,558.874Z" transform="translate(-165.242 -427.882)" fill="#fff"/>
  <path id="Path_93" data-name="Path 93" d="M195.83,589.432a31.513,31.513,0,0,1-9.931-1.606c-.414-.138-.84-.29-1.3-.466-.585-.225-1.16-.466-1.713-.719-.037-.015-.08-.035-.124-.056-.209-.1-.414-.194-.622-.3l-.03-.014c-.3-.142-.594-.294-.889-.45-.67-.354-1.335-.737-1.976-1.137-.334-.207-.667-.425-.99-.647a31.333,31.333,0,0,1,11.227-56.66c.551-.114,1.115-.214,1.676-.3.332-.052.693-.1,1.07-.142.256-.03.513-.057.774-.078.693-.063,1.4-.1,2.11-.119l.349-.007c.04,0,.08,0,.12,0,.075,0,.161,0,.249,0,.356,0,.715.006,1.066.019.776.025,1.554.08,2.312.161.4.042.829.1,1.308.167l.2.032c.127.02.256.041.382.064.273.043.563.1.91.167.283.057.565.116.846.18a30.7,30.7,0,0,1,3.081.875,31.521,31.521,0,0,1,16.507,13.117q.162.257.318.522c.079.129.156.261.233.4.025.04.051.085.075.13.012.018.022.037.032.055l.012.021c.132.23.265.472.408.742A31.356,31.356,0,0,1,207.3,587.26c-.446.179-.916.352-1.4.515-.522.179-1.058.346-1.593.5-.37.1-.75.2-1.129.292A31.548,31.548,0,0,1,195.83,589.432Zm-13.583-3.556h0l.046.022c.215.107.426.207.643.307.038.018.074.035.112.05.554.253,1.122.491,1.7.712.457.174.878.324,1.285.46a31.092,31.092,0,0,0,17.053.727c.374-.09.749-.187,1.114-.288.527-.148,1.055-.312,1.57-.489.475-.161.939-.331,1.378-.508a30.749,30.749,0,0,0,19.606-28.784h0a30.894,30.894,0,0,0-3.6-14.5c-.14-.265-.271-.5-.4-.728l-.016-.028c-.007-.012-.013-.024-.021-.036l-.011-.019q-.031-.06-.068-.119c-.078-.137-.153-.266-.232-.394-.1-.176-.208-.347-.314-.515A31.1,31.1,0,0,0,205.8,528.8a30.2,30.2,0,0,0-3.038-.863c-.278-.063-.556-.121-.836-.178-.341-.069-.626-.122-.9-.165-.128-.023-.255-.043-.38-.063l-.2-.032c-.467-.068-.89-.122-1.286-.164-.748-.08-1.516-.134-2.282-.159-.347-.013-.7-.019-1.051-.019-.086,0-.167,0-.249,0-.048,0-.081,0-.114,0l-.345.007c-.7.015-1.4.055-2.081.117h-.021c-.239.02-.491.047-.744.076-.372.042-.726.089-1.054.14-.555.082-1.111.18-1.654.293a30.913,30.913,0,0,0-11.075,55.9c.319.219.647.434.976.637.633.4,1.289.773,1.95,1.122C181.69,585.6,181.97,585.742,182.246,585.876Z" transform="translate(-164.452 -427.093)" fill="#cbcbcb"/>
  <path id="Path_94" data-name="Path 94" d="M376.068,620.327a3.823,3.823,0,0,1-5.856.254L362,623.554,358.973,619l11.66-4.035a3.844,3.844,0,0,1,5.436,5.36Z" transform="translate(-318.05 -496.096)" fill="#9f616a"/>
  <path id="Path_95" data-name="Path 95" d="M153.806,571.533l16.924-5.594,2.852,6.225L157.8,577Z" transform="translate(-121.457 -446.878)" fill="#ccc"/>
  <path id="Path_96" data-name="Path 96" d="M283.875,750.515a31.33,31.33,0,0,1-17.169-.732l.379-3.581.351-3.345,5.27-8.148L274.4,732.1l6.961,2.531.709,4.47,1.13,7.13Z" transform="translate(-245.194 -589.249)" fill="#2f2e41"/>
  <path id="Path_97" data-name="Path 97" d="M271.7,756.351c-.457.183-.921.353-1.388.511q-.783.268-1.582.492-.555.155-1.121.29a31.33,31.33,0,0,1-17.169-.732c-.435-.145-.867-.3-1.294-.463a24.236,24.236,0,0,1-.114,3.734,44.145,44.145,0,0,1-1.586-4.447c-.032-.1-.061-.2-.09-.3-.147-.509-.278-1-.4-1.452-.135-.528-.25-1.018-.347-1.466-.385-1.759-.507-2.846-.507-2.846l4.113-8.541.823.095.341.038,2.062.236,3,.343,4.853.553,4.506,3.837,4.037,3.44s.337,1.144.865,3.04C270.987,753.728,271.326,754.962,271.7,756.351Z" transform="translate(-228.928 -596.379)" fill="#2f2e41"/>
  <circle id="Ellipse_20" data-name="Ellipse 20" cx="7.277" cy="7.277" r="7.277" transform="translate(22.456 88.601)" fill="#9f616a"/>
  <path id="Path_98" data-name="Path 98" d="M254.229,561.406S252.48,556,248.367,556a7.432,7.432,0,0,0-4.037.965,20.063,20.063,0,0,0-8.988,16.048l-1.265,32.373s6.961,2.531,9.492,1.582,5.062-7.277,5.062-7.277-.633,8.543,1.9,8.226,12.023-.949,12.339-2.215-4.844-28.477-4.844-28.477Z" transform="translate(-219.43 -450.198)" fill="#ccc"/>
  <path id="Path_99" data-name="Path 99" d="M270.042,466.272a10.276,10.276,0,0,1,1.939.268,4.907,4.907,0,0,0,5.245-3.658,2.808,2.808,0,0,1,.268-.874,1.731,1.731,0,0,1,1.84-.56,14.209,14.209,0,0,0,1.988.484,3.044,3.044,0,0,0,2.627-1.487,5.042,5.042,0,0,0,.645-3.045l-.505.53a2.566,2.566,0,0,1-.229-1.395,1.618,1.618,0,0,0-1.533.392c-.445.047-.109-.826-.44-1.128a.765.765,0,0,0-.539-.1,4.292,4.292,0,0,1-2.461-1.3,10.458,10.458,0,0,0-4.417-2.015,5.812,5.812,0,0,0-3.223.156,6.884,6.884,0,0,0-2.176,1.544,13.287,13.287,0,0,0-3.657,5.426,9.134,9.134,0,0,0-.044,5.3c.266.9,1.069,3.978,2.244,4.049C269.091,468.945,268.2,466.382,270.042,466.272Z" transform="translate(-243.846 -368.261)" fill="#2f2e41"/>
  <path id="Path_100" data-name="Path 100" d="M102.248,574.153,94.8,585.082l-2.383,25.386Z" transform="translate(-72.979 -453.364)" opacity="0.1"/>
  <ellipse id="Ellipse_21" data-name="Ellipse 21" cx="0.556" cy="0.208" rx="0.556" ry="0.208" transform="translate(60.189 114.32) rotate(-54.492)" fill="#3f3d56"/>
  <path id="Path_101" data-name="Path 101" d="M404.931,600.243h0a.973.973,0,0,1-.227-1.357h0l8.475-11.879a.973.973,0,0,1,1.357-.227h0Z" transform="translate(-354.018 -474.36)" fill="#00b9ff"/>
  <path id="Path_102" data-name="Path 102" d="M405.036,599.85l-.49-.35a.787.787,0,0,1-.184-1.1l9.65-13.525a.665.665,0,0,1,.927-.155h0l.59.421h0L405.036,599.85Z" transform="translate(-353.775 -472.78)" fill="#2f2e41"/>
  <rect id="Rectangle_119" data-name="Rectangle 119" width="1.112" height="0.278" transform="translate(59.3 114.368) rotate(-54.492)" fill="#d0cde1"/>
  <rect id="Rectangle_120" data-name="Rectangle 120" width="1.112" height="0.278" transform="translate(58.412 115.613) rotate(-54.492)" fill="#d0cde1"/>
  <path id="Path_103" data-name="Path 103" d="M238.676,779.232a3.823,3.823,0,0,0-1.449-5.68l.472-8.723-5.231-1.58-.494,12.328a3.844,3.844,0,0,0,6.7,3.655Z" transform="translate(-217.551 -613.847)" fill="#9f616a"/>
  <path id="Path_104" data-name="Path 104" d="M228.515,625.286h-7.568l-2.082-23.311.007-.021,7.083-20.8a5.573,5.573,0,1,1,10.148,4.5l-8.335,15.01Z" transform="translate(-207.418 -467.076)" fill="#ccc"/>
  <path id="Path_105" data-name="Path 105" d="M800.648,207.718A31.164,31.164,0,1,1,768.8,176.59l.292-.006c.139,0,.28,0,.421,0,.353,0,.707.006,1.058.019q1.161.038,2.3.16c.438.046.869.1,1.3.166l.147.023a30.759,30.759,0,0,1,5.236,1.285A31.152,31.152,0,0,1,800.648,207.718Z" transform="translate(-617.591 -150.601)" fill="#fff"/>
  <path id="Path_106" data-name="Path 106" d="M768.689,238.329A31.375,31.375,0,0,1,768,175.587l.292-.006c.5-.007,1,0,1.491.017.775.025,1.553.079,2.312.161.4.042.83.1,1.308.167l.153.024a31.312,31.312,0,0,1,26.507,30.975h0a31.41,31.41,0,0,1-31.345,31.4Zm.026-62.33c-.139,0-.278,0-.414,0l-.291.006a30.954,30.954,0,0,0,.68,61.9h.03a30.989,30.989,0,0,0,30.925-30.983h0a30.891,30.891,0,0,0-26.155-30.56l-.151-.024c-.467-.068-.89-.122-1.286-.164-.749-.081-1.517-.134-2.282-.159-.347-.013-.7-.019-1.051-.019Z" transform="translate(-616.797 -149.809)" fill="#cbcbcb"/>
  <ellipse id="Ellipse_22" data-name="Ellipse 22" cx="0.208" cy="0.556" rx="0.208" ry="0.556" transform="matrix(0.535, -0.845, 0.845, 0.535, 127.045, 58.379)" fill="#3f3d56"/>
  <path id="Path_107" data-name="Path 107" d="M769.014,322.269h0a.973.973,0,0,1,1.342-.3h0l12.328,7.807a.973.973,0,0,1,.3,1.342h0Z" transform="translate(-641.828 -265.281)" fill="#00b9ff"/>
  <path id="Path_108" data-name="Path 108" d="M763.471,322.471l.388-.612a.665.665,0,0,1,.917-.206h0l14.037,8.889a.787.787,0,0,1,.244,1.086l-.322.509h0Z" transform="translate(-637.451 -265.07)" fill="#2f2e41"/>
  <rect id="Rectangle_121" data-name="Rectangle 121" width="0.278" height="1.112" transform="matrix(0.535, -0.845, 0.845, 0.535, 127.961, 57.972)" fill="#d0cde1"/>
  <rect id="Rectangle_122" data-name="Rectangle 122" width="0.278" height="1.112" transform="matrix(0.535, -0.845, 0.845, 0.535, 129.253, 58.79)" fill="#d0cde1"/>
  <circle id="Ellipse_23" data-name="Ellipse 23" cx="8.763" cy="8.763" r="8.763" transform="translate(143.241 11.661)" fill="#ffb8b8"/>
  <path id="Path_109" data-name="Path 109" d="M846.3,381.182a31.282,31.282,0,0,1-21.406-1.672l.673-17.987.051-1.4.019-.454.023-.669.017-.427.08,0c.143-.011.473-.034.947-.061.549-.032,1.288-.072,2.148-.107.2-.008.414-.017.631-.027,4.532-.168,11.609-.2,12.545,1.161l.118.8.189,1.3.387,2.653S847.125,373.04,846.3,381.182Z" transform="translate(-685.953 -294.082)" fill="#2f2e41"/>
  <path id="Path_110" data-name="Path 110" d="M847.653,214.2l-1.726,15.942-3.287,7.271-1.218,2.7-17.632-.214,1.817-12.289a7.014,7.014,0,0,1,3.526-9.3l6.318-12.946s1.683-.842,6.078-1.053c4.085-.2.865.422.865.422C847.737,204.195,847.653,214.2,847.653,214.2Z" transform="translate(-685.08 -172.463)" fill="#ccc"/>
  <path id="Path_111" data-name="Path 111" d="M892.7,251.212l-3.287,7.271a14.266,14.266,0,0,1-1.859-5.532c0-3.633,3.633-1.71,3.633-1.71s-2.939-16.083-2.939-20.891C888.248,227.155,890.911,241.33,892.7,251.212Z" transform="translate(-735.429 -192.694)" opacity="0.2"/>
  <path id="Path_112" data-name="Path 112" d="M851.026,68.171a9.822,9.822,0,0,0-2.578-3.629,1.916,1.916,0,0,0,1.078-.908,2.033,2.033,0,0,0-.3-2.1,3.827,3.827,0,0,0-1.57-1.13,3.1,3.1,0,0,0,1.43.275c.6-.062,1.192-.53,1.156-1.11-.034-.553-.578-.927-1.066-1.215l-.95-.561a4.91,4.91,0,0,0,.247-.561,3.894,3.894,0,0,0-.842-4.142c1.037,1.056.772,2.689-.252,4.015-.033.043-.069.084-.1.127l-.609-.36a4.283,4.283,0,0,0-1.621-.676,1.447,1.447,0,0,0-1.5.687c-.257.561.035,1.278-.3,1.8a1.644,1.644,0,0,1-1.487.532,3.369,3.369,0,0,0-1.637.136,1.522,1.522,0,0,0-.606,1.95,2.071,2.071,0,0,0,.59.751,27.46,27.46,0,0,0-4.334,1.084A15.32,15.32,0,0,0,831,65.266a5.367,5.367,0,0,0-2.327,4.477c.133,1.75,1.871,4.505,3.6,4.225l.264-.826a5.57,5.57,0,0,1,6.37,1.133c.02-1.1,1.7-1.467,2.532-.749a4.188,4.188,0,0,1,1.061,3.032,5.081,5.081,0,0,0,.851,3.127,3,3,0,0,0,2.91.806,5.584,5.584,0,0,0,2.659-1.648A10.206,10.206,0,0,0,851.026,68.171Z" transform="translate(-688.923 -53.086)" fill="#2f2e41"/>
  <path id="Path_113" data-name="Path 113" d="M796.057,342.4a3.823,3.823,0,0,0,5.68-1.449l23.871.472,1.58-5.231-27.476-.494a3.844,3.844,0,0,0-3.655,6.7Z" transform="translate(-661.903 -276.028)" fill="#ffb8b8"/>
  <path id="Path_114" data-name="Path 114" d="M891.586,202.311s-5.557.427-5.557,5.236,5.023,21.907,5.023,21.907-3.633-1.923-3.633,1.71,6.091,14.213,6.732,7.16c0,0,9.19,4.488,8.656-3.954s-6.3-26.288-6.3-26.288S895.861,201.991,891.586,202.311Z" transform="translate(-734.226 -170.908)" fill="#ccc"/>
</svg>
