<svg id="undraw_Reading_re_29f8" xmlns="http://www.w3.org/2000/svg" width="160" height="147.86" viewBox="0 0 160 147.86">
  <path id="Path_115" data-name="Path 115" d="M827.075,571.66l-12.988-19.292s19.67,6.867,17.437,19.292Z" transform="translate(-681.307 -453.2)" fill="#e5e5e5"/>
  <path id="Path_116" data-name="Path 116" d="M319.155,512.216l-.493-.01a114.358,114.358,0,0,1,1.75-16.342c2.132-11.558,5.677-19.148,10.538-22.561l.283.4C319.88,481.679,319.161,511.912,319.155,512.216Z" transform="translate(-308.021 -393.629)" fill="#e5e5e5"/>
  <path id="Path_117" data-name="Path 117" d="M344.155,578.764l-.493-.01c.011-.546.319-13.415,5.385-16.972l.283.4C344.468,565.6,344.158,578.632,344.155,578.764Z" transform="translate(-326.858 -460.294)" fill="#e5e5e5"/>
  <circle id="Ellipse_24" data-name="Ellipse 24" cx="2.465" cy="2.465" r="2.465" transform="translate(23.552 75.193)" fill="#00b9ff"/>
  <circle id="Ellipse_25" data-name="Ellipse 25" cx="2.465" cy="2.465" r="2.465" transform="translate(22.331 96.395)" fill="#00b9ff"/>
  <path id="Path_118" data-name="Path 118" d="M331,465.5a10.95,10.95,0,0,1-.744,5.606,9.98,9.98,0,0,1-1.678-10.717A10.95,10.95,0,0,1,331,465.5Z" transform="translate(-314.852 -383.896)" fill="#e5e5e5"/>
  <path id="Path_119" data-name="Path 119" d="M356.419,499.459a10.95,10.95,0,0,1-5.65.244,9.98,9.98,0,0,1,10.261-3.519A10.95,10.95,0,0,1,356.419,499.459Z" transform="translate(-332.213 -410.67)" fill="#e5e5e5"/>
  <path id="Path_120" data-name="Path 120" d="M361.954,578.78a7.675,7.675,0,0,1-3.96.171,7,7,0,0,1,7.192-2.467,7.676,7.676,0,0,1-3.232,2.3Z" transform="translate(-337.656 -471.215)" fill="#e5e5e5"/>
  <path id="Path_121" data-name="Path 121" d="M435.253,631.115H275.747a.247.247,0,0,1,0-.493H435.253a.247.247,0,0,1,0,.493Z" transform="translate(-275.5 -512.162)" fill="#cbcbcb"/>
  <path id="Path_122" data-name="Path 122" d="M338.812,504.825l-2.017,5.249-21.208-5.281,2.977-7.748Z" transform="translate(-237.784 -374.507)" fill="#ffb7b7"/>
  <path id="Path_123" data-name="Path 123" d="M673.649,673.233l-6.5,16.927-.214-.082a7.058,7.058,0,0,1-4.057-9.119h0l3.972-10.338Z" transform="translate(-567.018 -542.299)" fill="#2f2e41"/>
  <path id="Path_124" data-name="Path 124" d="M524.928,412.112l-9.242.865-.458,27.5a5.176,5.176,0,0,0,5.511,4.7l5.86-.4Z" transform="translate(-456.126 -347.522)" fill="#e5e5e5"/>
  <path id="Path_125" data-name="Path 125" d="M666.265,406.373l-6.324-.081-.375,32.675h0A10.177,10.177,0,0,0,670.076,428.4Z" transform="translate(-564.882 -343.137)" fill="#e5e5e5"/>
  <path id="Path_126" data-name="Path 126" d="M531.6,572.076a20.12,20.12,0,0,1-.651,2.8c-.319.9-.812,1.727-1.1,2.634-.93,2.89.359,6.112,2.418,8.342a13.613,13.613,0,0,0,6.637,3.941,27.079,27.079,0,0,0,5.7.6c5.3.18,10.739.341,15.762-1.363a27.39,27.39,0,0,0,4.579-2.08,3.428,3.428,0,0,0,1.188-.936,3.27,3.27,0,0,0,.429-1.919c-.011-2.247-.467-4.483-.359-6.728a26.669,26.669,0,0,0,.178-3.725,6.872,6.872,0,0,0-5.252-5.92,14.265,14.265,0,0,0-4.354,0,111.016,111.016,0,0,1-11.331.507c-3.865-.025-7.707-.615-11.553-.676-1.137-.018-1.114.332-1.477,1.433A26.811,26.811,0,0,0,531.6,572.076Z" transform="translate(-466.911 -464.639)" fill="#2f2e41"/>
  <path id="Path_127" data-name="Path 127" d="M443.94,577.449a11.436,11.436,0,0,0-3.181-.338,7.94,7.94,0,0,0-7.372,9.361,13.337,13.337,0,0,0,1.261,3.445,11.511,11.511,0,0,0,3.418,4.518,13.313,13.313,0,0,0,3.016,1.436l8.226,3.1c1.21.456,2.421.912,3.643,1.335a71.253,71.253,0,0,0,19.027,3.783,20.6,20.6,0,0,0,5.908-.3,1.923,1.923,0,0,0,1.21-.654,2.072,2.072,0,0,0,.27-.893l.506-3.544a2.969,2.969,0,0,0-.043-1.494,2.862,2.862,0,0,0-1.367-1.289c-5.408-3.106-11.723-4.82-16.276-9.083-1.072-1-1.969-2.595-3.271-3.276-1.477-.773-3.215-1.214-4.742-1.927C450.837,580.07,447.556,578.28,443.94,577.449Z" transform="translate(-394.364 -471.838)" fill="#2f2e41"/>
  <path id="Path_128" data-name="Path 128" d="M498.648,595.393c2.908.911,15.184,7.223,17.288,9.427-.282.1-9.852-5.261-10.139-5.348a57.823,57.823,0,0,1-7.714-2.718c-.5-.231-3.24-1.315-3.115-1.944C495.108,594.1,498.131,595.231,498.648,595.393Z" transform="translate(-440.859 -485.005)" opacity="0.1"/>
  <path id="Path_129" data-name="Path 129" d="M532.744,373.492l-7.829,5.944s-8.261.258-7.982,5.539,3.585,30.284,3.585,30.284l.717,8.6,13.607,3.877a44.521,44.521,0,0,0,22.554.483h0l-1.617-8.631s6.548-39.2,2.6-40.923-6.41-1.233-6.41-1.233l-4.944-4.314Z" transform="translate(-457.407 -318.145)" fill="#e5e5e5"/>
  <path id="Path_130" data-name="Path 130" d="M577.67,270.287c0,7.717-7.135,6.55-15.937,6.55S545.8,278,545.8,270.287s3.485-21.4,15.937-21.4C574.614,248.891,577.67,262.57,577.67,270.287Z" transform="translate(-479.159 -224.541)" fill="#2f2e41"/>
  <circle id="Ellipse_26" data-name="Ellipse 26" cx="10.724" cy="10.724" r="10.724" transform="translate(68.11 40.777) rotate(-45)" fill="#ffb7b7"/>
  <path id="Path_131" data-name="Path 131" d="M559.964,279.726h4.242l1.871-5.24.374,5.24h2.027l1.092-3.056.218,3.056h15.064A11.353,11.353,0,0,0,573.5,268.373h-2.183a11.353,11.353,0,0,0-11.353,11.353Z" transform="translate(-489.834 -239.22)" fill="#2f2e41"/>
  <rect id="Rectangle_123" data-name="Rectangle 123" width="21.448" height="25.886" transform="translate(71.886 56.58)" fill="#00b9ff"/>
  <path id="Path_132" data-name="Path 132" d="M296.381,503.825l2.017,5.249,21.208-5.281-2.977-7.748Z" transform="translate(-223.313 -373.753)" fill="#ffb7b7"/>
  <path id="Path_133" data-name="Path 133" d="M555.957,669.62l3.972,10.338h0a7.058,7.058,0,0,1-4.057,9.119l-.214.082-6.5-16.927Z" transform="translate(-481.689 -541.546)" fill="#2f2e41"/>
  <path id="Path_134" data-name="Path 134" d="M635.216,568.994a14.808,14.808,0,0,1,5.216-.356,5.5,5.5,0,0,1,5.52,6.205,14.679,14.679,0,0,1-3.191,9.375,8.506,8.506,0,0,1-1.824,1.756,12.01,12.01,0,0,1-2.373,1.144l-18.423,7.267a119.037,119.037,0,0,1-14.766,5.089,1.151,1.151,0,0,1-1.537-.536l-.012-.025a38.172,38.172,0,0,1-4.038-7.386.5.5,0,0,1,.22-.785l13.031-7.487a13.178,13.178,0,0,0,2.652-1.827,6.584,6.584,0,0,0,1.362-1.9c.27-.564.3-1.9.64-2.312s1.493-.441,2.027-.6a18.376,18.376,0,0,0,2.207-.834c2.915-1.3,5.51-3.2,8.3-4.726A21.311,21.311,0,0,1,635.216,568.994Z" transform="translate(-519.756 -465.393)" fill="#2f2e41"/>
  <path id="Path_135" data-name="Path 135" d="M649.947,588.671c-2.239,1.681-5.137,3.227-7.356,4.953-.757.589-13.381,7.686-13.559,8.629,2.07.349,15.256-8.876,17.143-9.8a30.467,30.467,0,0,0,5.216-3.507c.422-.328,2.212-1.315,1-1.682C651.707,587.06,650.451,588.335,649.947,588.671Z" transform="translate(-541.874 -479.479)" opacity="0.1"/>
  <circle id="Ellipse_27" data-name="Ellipse 27" cx="7.704" cy="7.704" r="7.704" transform="translate(140.607 28.898)" fill="#f1f1f1"/>
  <circle id="Ellipse_28" data-name="Ellipse 28" cx="5.404" cy="5.404" r="5.404" transform="translate(128.65 34.877)" fill="#f1f1f1"/>
  <circle id="Ellipse_29" data-name="Ellipse 29" cx="4.333" cy="4.333" r="4.333" transform="translate(30.727 33.494)" fill="#f1f1f1"/>
  <circle id="Ellipse_30" data-name="Ellipse 30" cx="3.04" cy="3.04" r="3.04" transform="translate(39.155 38.995)" fill="#f1f1f1"/>
  <circle id="Ellipse_31" data-name="Ellipse 31" cx="3.312" cy="3.312" r="3.312" transform="translate(80.917 0)" fill="#f1f1f1"/>
  <path id="Path_136" data-name="Path 136" d="M537.087,439.637l.3-2.285s11.044.806,9.319,3.518-5.917,2.958-5.917,2.958Z" transform="translate(-472.597 -366.54)" fill="#2f2e41" opacity="0.17"/>
  <path id="Path_137" data-name="Path 137" d="M533.7,406.235a4.312,4.312,0,0,1,3.137,1.926h0a4.308,4.308,0,0,1-1.4,6.056,4.152,4.152,0,0,1-.571.281l-6.789,20.765a3.449,3.449,0,0,1-6.2-3.019l7.22-20.534a4.3,4.3,0,0,1,4.606-5.474Z" transform="translate(-460.87 -343.075)" fill="#ffb7b7"/>
  <path id="Path_138" data-name="Path 138" d="M521.365,438.142s3.89,6.646,9.513,3.323l-5.45,20.856h-4.592l-4.75-.887,1.33-8.617Z" transform="translate(-456.774 -367.135)" fill="#e5e5e5"/>
  <path id="Path_139" data-name="Path 139" d="M640.308,433.022l-3.222-4.424s1.549-4.589,7.554-2.911C644.64,425.688,648.462,434.242,640.308,433.022Z" transform="translate(-547.943 -357.473)" fill="#e5e5e5"/>
  <path id="Path_140" data-name="Path 140" d="M640.308,433.022l-3.222-4.424s1.549-4.589,7.554-2.911C644.64,425.688,648.462,434.242,640.308,433.022Z" transform="translate(-547.943 -357.473)" fill="#2f2e41" opacity="0.17"/>
  <path id="Path_141" data-name="Path 141" d="M634.845,392.616a4.28,4.28,0,0,1,2.3,5.09l7.219,20.534a3.449,3.449,0,1,1-6.2,3.019l-6.789-20.765a4.155,4.155,0,0,1-.571-.281,4.308,4.308,0,0,1-1.4-6.056h0a4.312,4.312,0,0,1,3.137-1.926A4.259,4.259,0,0,1,634.845,392.616Z" transform="translate(-541.626 -332.523)" fill="#ffb7b7"/>
  <path id="Path_142" data-name="Path 142" d="M637.087,429.726s5.317,3.226,7.554-2.911l7.492,19.726-2.226,3.893-.322.027a8.233,8.233,0,0,1-7.047-2.98h0a16.356,16.356,0,0,1-3.417-7.267Z" transform="translate(-547.944 -358.601)" fill="#e5e5e5"/>
</svg>
